<svg fill="none" height="102" id="svg20" inkscape:version="1.3.2 (091e20e, 2023-11-25, custom)" sodipodi:docname="svg_2.svg" version="1.1" viewbox="0 0 178 102" width="178" xmlns="http://www.w3.org/2000/svg" xmlns:inkscape="http://www.inkscape.org/namespaces/inkscape" xmlns:sodipodi="http://sodipodi.sourceforge.net/DTD/sodipodi-0.dtd" xmlns:svg="http://www.w3.org/2000/svg">
<sodipodi:namedview bordercolor="#000000" borderopacity="0.25" id="namedview20" inkscape:current-layer="svg20" inkscape:cx="89" inkscape:cy="50.938703" inkscape:deskcolor="#d1d1d1" inkscape:pagecheckerboard="0" inkscape:pageopacity="0.0" inkscape:showpageshadow="2" inkscape:window-height="1017" inkscape:window-maximized="1" inkscape:window-width="1920" inkscape:window-x="-8" inkscape:window-y="-8" inkscape:zoom="7.8820225" pagecolor="#ffffff"></sodipodi:namedview>
<rect fill="url(#paint0_linear_97_361)" height="99.8243" id="rect1" rx="13.8311" width="176.797" x="0.601351" y="0.601351"></rect>
<rect height="99.8243" id="rect2" rx="13.8311" stroke="url(#paint1_linear_97_361)" stroke-width="1.2027" width="176.797" x="0.601351" y="0.601351"></rect>
<circle cx="76.0135" cy="45.0135" fill="#F4F4F4" id="circle2" r="6.01351"></circle>
<circle cx="84.4325" cy="45.0135" fill="#D4D9E4" id="circle3" r="6.01351"></circle>
<circle cx="92.8514" cy="45.0135" fill="#B6C4DF" id="circle4" r="6.01351"></circle>
<circle cx="101.27" cy="45.0135" fill="#8798B8" id="circle5" r="6.01351"></circle>
<path d="M54.0691 54.9818V65.4324H51.9158V56.6685H47.7169V65.4324H45.5637V54.9818H54.0691ZM61.0457 57.6662V59.2884H57.2273V57.6662H61.0457ZM62.5602 57.6662V65.4324H60.4931V57.6662H62.5602ZM56.7105 57.6662H58.7417L58.5336 61.5852C58.5049 62.145 58.4451 62.6379 58.3541 63.0638C58.2632 63.4896 58.1412 63.8533 57.9881 64.1548C57.8397 64.4562 57.6603 64.7027 57.4498 64.8941C57.244 65.0807 57.0024 65.217 56.7248 65.3032C56.4521 65.3893 56.1506 65.4324 55.8204 65.4324H55.1888L55.1673 63.8031L55.4329 63.7744C55.586 63.76 55.72 63.7169 55.8348 63.6452C55.9544 63.5686 56.0549 63.4609 56.1363 63.3222C56.2224 63.1786 56.2942 62.9992 56.3516 62.7838C56.409 62.5637 56.4545 62.3053 56.488 62.0087C56.5262 61.712 56.5526 61.3699 56.5669 60.9823L56.7105 57.6662ZM68.3525 63.681V60.2214C68.3525 59.9726 68.3118 59.7597 68.2305 59.5826C68.1491 59.4008 68.0223 59.2596 67.8501 59.1592C67.6826 59.0587 67.4649 59.0084 67.1969 59.0084C66.9672 59.0084 66.7687 59.0491 66.6012 59.1305C66.4337 59.207 66.3045 59.3195 66.2136 59.4678C66.1227 59.6113 66.0772 59.7812 66.0772 59.9774H64.0101C64.0101 59.6472 64.0866 59.3338 64.2398 59.0371C64.3929 58.7405 64.6154 58.4797 64.9073 58.2548C65.1992 58.0251 65.5461 57.8457 65.948 57.7165C66.3548 57.5873 66.8093 57.5227 67.3118 57.5227C67.9147 57.5227 68.4506 57.6232 68.9195 57.8241C69.3885 58.0251 69.7569 58.3266 70.0249 58.7285C70.2976 59.1305 70.434 59.6329 70.434 60.2358V63.559C70.434 63.9849 70.4603 64.3342 70.513 64.607C70.5656 64.8749 70.6422 65.1094 70.7427 65.3104V65.4324H68.654C68.5535 65.2218 68.4769 64.9587 68.4243 64.6428C68.3764 64.3222 68.3525 64.0016 68.3525 63.681ZM68.6253 60.7023L68.6396 61.8723H67.484C67.2113 61.8723 66.9744 61.9034 66.7734 61.9656C66.5725 62.0278 66.4074 62.1163 66.2782 62.2312C66.149 62.3412 66.0533 62.4704 65.9911 62.6188C65.9337 62.7671 65.905 62.9298 65.905 63.1068C65.905 63.2839 65.9456 63.4442 66.027 63.5877C66.1083 63.7265 66.2256 63.8366 66.3787 63.9179C66.5318 63.9945 66.7112 64.0327 66.917 64.0327C67.228 64.0327 67.4984 63.9705 67.7281 63.8461C67.9577 63.7217 68.1348 63.5686 68.2592 63.3868C68.3884 63.2049 68.4554 63.0327 68.4602 62.87L69.0057 63.7456C68.9291 63.9418 68.8238 64.1452 68.6899 64.3557C68.5607 64.5663 68.3956 64.7649 68.1946 64.9515C67.9936 65.1333 67.752 65.284 67.4697 65.4037C67.1874 65.5185 66.8524 65.5759 66.4648 65.5759C65.9719 65.5759 65.5245 65.4778 65.1226 65.2816C64.7254 65.0807 64.4096 64.8055 64.1752 64.4562C63.9455 64.1021 63.8306 63.7002 63.8306 63.2504C63.8306 62.8437 63.9072 62.4824 64.0603 62.1666C64.2134 61.8508 64.4383 61.5852 64.735 61.3699C65.0365 61.1497 65.4121 60.9847 65.8619 60.8746C66.3117 60.7598 66.8333 60.7023 67.4266 60.7023H68.6253ZM75.8674 57.6662V65.4324H73.7931V57.6662H75.8674ZM78.3652 57.6662V59.2668H71.3312V57.6662H78.3652ZM81.4803 62.547L84.0858 57.6662H86.1529V65.4324H84.0858V60.5444L81.4803 65.4324H79.4132V57.6662H81.4803V62.547ZM93.0649 60.8028V62.4106H89.1173V60.8028H93.0649ZM89.8063 57.6662V65.4324H87.7392V57.6662H89.8063ZM94.4646 57.6662V65.4324H92.3903V57.6662H94.4646ZM95.7422 61.6283V61.4775C95.7422 60.9081 95.8235 60.3841 95.9862 59.9056C96.1489 59.4223 96.3858 59.0036 96.6968 58.6496C97.0078 58.2955 97.3906 58.0203 97.8452 57.8241C98.2998 57.6232 98.8214 57.5227 99.4099 57.5227C99.9985 57.5227 100.522 57.6232 100.982 57.8241C101.441 58.0203 101.826 58.2955 102.137 58.6496C102.453 59.0036 102.692 59.4223 102.855 59.9056C103.018 60.3841 103.099 60.9081 103.099 61.4775V61.6283C103.099 62.1929 103.018 62.7169 102.855 63.2001C102.692 63.6786 102.453 64.0973 102.137 64.4562C101.826 64.8103 101.444 65.0855 100.989 65.2816C100.534 65.4778 100.013 65.5759 99.4243 65.5759C98.8357 65.5759 98.3118 65.4778 97.8524 65.2816C97.3978 65.0855 97.0126 64.8103 96.6968 64.4562C96.3858 64.0973 96.1489 63.6786 95.9862 63.2001C95.8235 62.7169 95.7422 62.1929 95.7422 61.6283ZM97.8093 61.4775V61.6283C97.8093 61.9536 97.838 62.2575 97.8955 62.5398C97.9529 62.8221 98.0438 63.0709 98.1682 63.2863C98.2974 63.4968 98.4649 63.6619 98.6706 63.7815C98.8764 63.9012 99.1276 63.961 99.4243 63.961C99.7114 63.961 99.9578 63.9012 100.164 63.7815C100.369 63.6619 100.534 63.4968 100.659 63.2863C100.783 63.0709 100.874 62.8221 100.932 62.5398C100.994 62.2575 101.025 61.9536 101.025 61.6283V61.4775C101.025 61.1617 100.994 60.865 100.932 60.5875C100.874 60.3052 100.781 60.0564 100.652 59.841C100.527 59.6209 100.362 59.4487 100.156 59.3242C99.9506 59.1998 99.7018 59.1376 99.4099 59.1376C99.118 59.1376 98.8692 59.1998 98.6635 59.3242C98.4625 59.4487 98.2974 59.6209 98.1682 59.841C98.0438 60.0564 97.9529 60.3052 97.8955 60.5875C97.838 60.865 97.8093 61.1617 97.8093 61.4775ZM108.238 62.1881H105.805L105.791 60.8315H107.801C108.068 60.8315 108.286 60.8052 108.454 60.7526C108.621 60.6952 108.743 60.6114 108.82 60.5014C108.901 60.3865 108.942 60.2478 108.942 60.0851C108.942 59.9415 108.915 59.8195 108.863 59.719C108.815 59.6137 108.741 59.5276 108.64 59.4606C108.54 59.3936 108.413 59.3458 108.26 59.3171C108.112 59.2836 107.937 59.2668 107.736 59.2668H106.573V65.4324H104.506V57.6662H107.736C108.243 57.6662 108.698 57.7117 109.1 57.8026C109.502 57.8887 109.844 58.0203 110.126 58.1974C110.413 58.3744 110.631 58.5993 110.779 58.8721C110.932 59.14 111.009 59.4582 111.009 59.8267C111.009 60.0659 110.954 60.2908 110.844 60.5014C110.739 60.7119 110.581 60.8985 110.37 61.0612C110.16 61.2239 109.899 61.3579 109.588 61.4632C109.282 61.5637 108.927 61.6259 108.525 61.6498L108.238 62.1881ZM108.238 65.4324H105.296L106.006 63.8318H108.238C108.492 63.8318 108.7 63.8007 108.863 63.7385C109.026 63.6763 109.145 63.5853 109.222 63.4657C109.303 63.3413 109.344 63.193 109.344 63.0207C109.344 62.8532 109.308 62.7073 109.236 62.5829C109.164 62.4585 109.047 62.3628 108.884 62.2958C108.726 62.224 108.511 62.1881 108.238 62.1881H106.308L106.322 60.8315H108.518L109.021 61.377C109.566 61.4105 110.016 61.5134 110.37 61.6857C110.724 61.8579 110.985 62.078 111.152 62.346C111.325 62.6092 111.411 62.8987 111.411 63.2145C111.411 63.5829 111.341 63.9059 111.203 64.1835C111.064 64.461 110.858 64.6931 110.585 64.8797C110.317 65.0615 109.987 65.2003 109.595 65.296C109.203 65.3869 108.75 65.4324 108.238 65.4324ZM114.11 59.9702H116.363C117.072 59.9702 117.675 60.0875 118.172 60.3219C118.675 60.5516 119.057 60.8722 119.321 61.2837C119.589 61.6952 119.723 62.1714 119.723 62.7121C119.723 63.1044 119.646 63.4681 119.493 63.8031C119.344 64.1332 119.127 64.4203 118.84 64.6644C118.553 64.9084 118.201 65.0974 117.785 65.2314C117.368 65.3654 116.895 65.4324 116.363 65.4324H112.818V57.6662H114.892V63.8246H116.363C116.674 63.8246 116.923 63.7744 117.11 63.6739C117.301 63.5686 117.44 63.4322 117.526 63.2647C117.617 63.0973 117.663 62.9154 117.663 62.7192C117.663 62.5135 117.617 62.3269 117.526 62.1594C117.44 61.9871 117.301 61.8484 117.11 61.7431C116.923 61.6378 116.674 61.5852 116.363 61.5852H114.11V59.9702ZM123.039 57.6662V65.4324H120.971V57.6662H123.039ZM126.914 62.547L129.52 57.6662H131.587V65.4324H129.52V60.5444L126.914 65.4324H124.847V57.6662H126.914V62.547ZM129.283 54.544H130.754C130.754 54.9555 130.652 55.3215 130.446 55.6421C130.245 55.958 129.958 56.2068 129.585 56.3886C129.211 56.5657 128.771 56.6542 128.264 56.6542C127.493 56.6542 126.883 56.458 126.434 56.0656C125.989 55.6732 125.766 55.166 125.766 54.544H127.23C127.23 54.7928 127.307 55.0153 127.46 55.2115C127.618 55.4077 127.886 55.5058 128.264 55.5058C128.637 55.5058 128.9 55.4077 129.053 55.2115C129.206 55.0153 129.283 54.7928 129.283 54.544Z" fill="#2A3038" id="path5"></path>
<path d="M66.4374 70.896V71.9941H62.5113V70.896H66.4374ZM62.7051 70.896V78.6621H61.3772V70.896H62.7051ZM67.6145 70.896V78.6621H66.2795V70.896H67.6145ZM74.3256 77.3343V73.3363C74.3256 73.0301 74.2634 72.7645 74.139 72.5396C74.0193 72.3099 73.8375 72.1329 73.5935 72.0085C73.3494 71.8841 73.048 71.8219 72.6891 71.8219C72.3541 71.8219 72.0599 71.8793 71.8062 71.9941C71.5574 72.109 71.3612 72.2597 71.2177 72.4463C71.0789 72.6329 71.0095 72.8339 71.0095 73.0492H69.6817C69.6817 72.7717 69.7535 72.4966 69.897 72.2238C70.0406 71.9511 70.2463 71.7046 70.5143 71.4845C70.787 71.2596 71.1124 71.0826 71.4904 70.9534C71.8732 70.8194 72.2991 70.7524 72.768 70.7524C73.3327 70.7524 73.8303 70.8481 74.261 71.0395C74.6964 71.2309 75.0362 71.5204 75.2802 71.908C75.529 72.2908 75.6534 72.7717 75.6534 73.3507V76.9682C75.6534 77.2266 75.675 77.5017 75.718 77.7936C75.7659 78.0855 75.8353 78.3367 75.9262 78.5473V78.6621H74.5409C74.4739 78.509 74.4213 78.3056 74.383 78.052C74.3447 77.7936 74.3256 77.5544 74.3256 77.3343ZM74.5553 73.9536L74.5696 74.8867H73.2274C72.8494 74.8867 72.512 74.9178 72.2154 74.98C71.9187 75.0374 71.6699 75.126 71.4689 75.2456C71.2679 75.3652 71.1148 75.5159 71.0095 75.6978C70.9043 75.8748 70.8516 76.083 70.8516 76.3222C70.8516 76.5663 70.9067 76.7888 71.0167 76.9897C71.1268 77.1907 71.2918 77.351 71.512 77.4706C71.7369 77.5855 72.012 77.6429 72.3374 77.6429C72.7441 77.6429 73.103 77.5568 73.414 77.3845C73.7251 77.2122 73.9715 77.0017 74.1533 76.7529C74.3399 76.504 74.4404 76.2624 74.4548 76.0279L75.0218 76.6667C74.9883 76.8677 74.8974 77.0902 74.7491 77.3343C74.6007 77.5783 74.4021 77.8128 74.1533 78.0377C73.9093 78.2578 73.6174 78.442 73.2776 78.5903C72.9427 78.7339 72.5647 78.8057 72.1436 78.8057C71.6172 78.8057 71.1555 78.7028 70.7583 78.497C70.3659 78.2913 70.0597 78.0161 69.8396 77.6716C69.6243 77.3223 69.5166 76.9323 69.5166 76.5017C69.5166 76.0854 69.5979 75.7193 69.7606 75.4035C69.9233 75.0829 70.1578 74.8173 70.464 74.6068C70.7703 74.3914 71.1387 74.2288 71.5694 74.1187C72 74.0086 72.4809 73.9536 73.0121 73.9536H74.5553ZM79.07 72.3889V81.648H77.7349V70.896H78.9551L79.07 72.3889ZM84.3024 74.7144V74.8652C84.3024 75.4298 84.2354 75.9538 84.1014 76.4371C83.9675 76.9156 83.7713 77.3319 83.5129 77.686C83.2593 78.0401 82.9459 78.3152 82.5726 78.5114C82.1994 78.7076 81.7711 78.8057 81.2878 78.8057C80.795 78.8057 80.3595 78.7243 79.9815 78.5616C79.6035 78.3989 79.2829 78.1621 79.0197 77.851C78.7565 77.54 78.546 77.1668 78.3881 76.7313C78.235 76.2959 78.1297 75.8054 78.0723 75.2599V74.456C78.1297 73.8818 78.2374 73.3674 78.3953 72.9129C78.5532 72.4583 78.7613 72.0707 79.0197 71.7501C79.2829 71.4247 79.6011 71.1783 79.9743 71.0108C80.3476 70.8385 80.7782 70.7524 81.2663 70.7524C81.7544 70.7524 82.1874 70.8481 82.5654 71.0395C82.9435 71.2261 83.2617 71.4941 83.5201 71.8434C83.7785 72.1927 83.9723 72.6114 84.1014 73.0995C84.2354 73.5828 84.3024 74.1211 84.3024 74.7144ZM82.9674 74.8652V74.7144C82.9674 74.3268 82.9267 73.9632 82.8454 73.6234C82.764 73.2789 82.6372 72.9775 82.465 72.7191C82.2975 72.4559 82.0822 72.2501 81.819 72.1018C81.5558 71.9487 81.2424 71.8721 80.8787 71.8721C80.5438 71.8721 80.2519 71.9295 80.003 72.0444C79.759 72.1592 79.5509 72.3147 79.3786 72.5109C79.2063 72.7023 79.0652 72.9224 78.9551 73.1713C78.8498 73.4153 78.7709 73.6689 78.7183 73.9321V75.7911C78.814 76.126 78.9479 76.4418 79.1202 76.7385C79.2925 77.0304 79.5221 77.2673 79.8093 77.4491C80.0964 77.6261 80.4576 77.7147 80.8931 77.7147C81.2519 77.7147 81.5606 77.6405 81.819 77.4922C82.0822 77.339 82.2975 77.1309 82.465 76.8677C82.6372 76.6045 82.764 76.3031 82.8454 75.9633C82.9267 75.6188 82.9674 75.2528 82.9674 74.8652ZM88.5874 70.896V78.6621H87.2524V70.896H88.5874ZM91.1929 70.896V71.9726H84.6972V70.896H91.1929ZM97.7676 74.2622V75.3389H93.662V74.2622H97.7676ZM93.9419 70.896V78.6621H92.6141V70.896H93.9419ZM98.8442 70.896V78.6621H97.5092V70.896H98.8442ZM104.206 78.8057C103.665 78.8057 103.175 78.7147 102.734 78.5329C102.299 78.3463 101.923 78.0855 101.608 77.7506C101.297 77.4156 101.057 77.0184 100.89 76.5591C100.722 76.0997 100.639 75.5973 100.639 75.0518V74.7503C100.639 74.1187 100.732 73.5565 100.919 73.0636C101.105 72.5659 101.359 72.1449 101.679 71.8003C102 71.4558 102.364 71.195 102.77 71.018C103.177 70.8409 103.598 70.7524 104.034 70.7524C104.589 70.7524 105.067 70.8481 105.469 71.0395C105.876 71.2309 106.208 71.4989 106.467 71.8434C106.725 72.1831 106.917 72.5851 107.041 73.0492C107.165 73.5086 107.228 74.011 107.228 74.5565V75.1523H101.428V74.0685H105.9V73.968C105.881 73.6234 105.809 73.2885 105.684 72.9631C105.565 72.6377 105.373 72.3698 105.11 72.1592C104.847 71.9487 104.488 71.8434 104.034 71.8434C103.732 71.8434 103.455 71.908 103.201 72.0372C102.947 72.1616 102.73 72.3482 102.548 72.597C102.366 72.8459 102.225 73.1497 102.124 73.5086C102.024 73.8675 101.974 74.2814 101.974 74.7503V75.0518C101.974 75.4202 102.024 75.7671 102.124 76.0925C102.23 76.4131 102.38 76.6955 102.577 76.9395C102.778 77.1835 103.019 77.3749 103.302 77.5137C103.589 77.6525 103.914 77.7218 104.278 77.7218C104.747 77.7218 105.144 77.6261 105.469 77.4347C105.795 77.2433 106.079 76.9873 106.323 76.6667L107.127 77.3055C106.96 77.5592 106.747 77.8008 106.488 78.0305C106.23 78.2602 105.912 78.4468 105.534 78.5903C105.16 78.7339 104.718 78.8057 104.206 78.8057ZM101.715 68.8216C101.715 68.6063 101.782 68.4245 101.916 68.2761C102.05 68.1278 102.244 68.0536 102.498 68.0536C102.756 68.0536 102.952 68.1278 103.086 68.2761C103.22 68.4245 103.287 68.6063 103.287 68.8216C103.287 69.0274 103.22 69.2044 103.086 69.3528C102.952 69.4963 102.756 69.5681 102.498 69.5681C102.244 69.5681 102.05 69.4963 101.916 69.3528C101.782 69.2044 101.715 69.0274 101.715 68.8216ZM104.809 68.836C104.809 68.6207 104.873 68.4388 105.003 68.2905C105.137 68.1422 105.333 68.068 105.591 68.068C105.845 68.068 106.039 68.1422 106.173 68.2905C106.311 68.4388 106.381 68.6207 106.381 68.836C106.381 69.0417 106.311 69.2188 106.173 69.3671C106.039 69.5107 105.845 69.5825 105.591 69.5825C105.333 69.5825 105.137 69.5107 105.003 69.3671C104.873 69.2188 104.809 69.0417 104.809 68.836ZM110.106 72.3889V81.648H108.771V70.896H109.991L110.106 72.3889ZM115.338 74.7144V74.8652C115.338 75.4298 115.271 75.9538 115.137 76.4371C115.003 76.9156 114.807 77.3319 114.549 77.686C114.295 78.0401 113.982 78.3152 113.609 78.5114C113.235 78.7076 112.807 78.8057 112.324 78.8057C111.831 78.8057 111.395 78.7243 111.017 78.5616C110.639 78.3989 110.319 78.1621 110.056 77.851C109.792 77.54 109.582 77.1668 109.424 76.7313C109.271 76.2959 109.166 75.8054 109.108 75.2599V74.456C109.166 73.8818 109.273 73.3674 109.431 72.9129C109.589 72.4583 109.797 72.0707 110.056 71.7501C110.319 71.4247 110.637 71.1783 111.01 71.0108C111.383 70.8385 111.814 70.7524 112.302 70.7524C112.79 70.7524 113.223 70.8481 113.601 71.0395C113.979 71.2261 114.298 71.4941 114.556 71.8434C114.814 72.1927 115.008 72.6114 115.137 73.0995C115.271 73.5828 115.338 74.1211 115.338 74.7144ZM114.003 74.8652V74.7144C114.003 74.3268 113.963 73.9632 113.881 73.6234C113.8 73.2789 113.673 72.9775 113.501 72.7191C113.333 72.4559 113.118 72.2501 112.855 72.1018C112.592 71.9487 112.278 71.8721 111.915 71.8721C111.58 71.8721 111.288 71.9295 111.039 72.0444C110.795 72.1592 110.587 72.3147 110.414 72.5109C110.242 72.7023 110.101 72.9224 109.991 73.1713C109.886 73.4153 109.807 73.6689 109.754 73.9321V75.7911C109.85 76.126 109.984 76.4418 110.156 76.7385C110.328 77.0304 110.558 77.2673 110.845 77.4491C111.132 77.6261 111.494 77.7147 111.929 77.7147C112.288 77.7147 112.596 77.6405 112.855 77.4922C113.118 77.339 113.333 77.1309 113.501 76.8677C113.673 76.6045 113.8 76.3031 113.881 75.9633C113.963 75.6188 114.003 75.2528 114.003 74.8652Z" fill="#2A3038" id="path6"></path>
<mask height="14" id="mask0_97_361" maskunits="userSpaceOnUse" style="mask-type:luminance" width="92" x="43" y="10">
<path d="M134.21 10.246H43.2974V23.6487H134.21V10.246Z" fill="white" id="path7"></path>
</mask>
<defs id="defs20">
<lineargradient gradientunits="userSpaceOnUse" id="paint0_linear_97_361" x1="0" x2="86.7381" y1="0" y2="152.824">
<stop stop-color="#F4F4F4"></stop>
<stop offset="0.345" stop-color="#D4D9E4"></stop>
<stop offset="0.49" stop-color="#E4E9F4"></stop>
<stop offset="0.61" stop-color="#C2D1EE"></stop>
<stop offset="1" stop-color="#E6EEFF"></stop>
</lineargradient>
<lineargradient gradientunits="userSpaceOnUse" id="paint1_linear_97_361" x1="178" x2="91.2619" y1="101.027" y2="-51.7973">
<stop stop-color="#F4F4F4"></stop>
<stop offset="0.5" stop-color="#B6C4DF"></stop>
<stop offset="1" stop-color="#F4F4F4"></stop>
</lineargradient>
</defs>
<text id="text14" style="font-size:15.7244px;fill:#000000;stroke-width:1.31037" x="46.263988" xml:space="preserve" y="20.072685"><tspan id="tspan14" sodipodi:role="line" style="font-style:normal;font-variant:normal;font-weight:normal;font-stretch:normal;font-family:Corbert;-inkscape-font-specification:Corbert;stroke-width:1.31037" x="46.263988" y="20.072685">Partner<tspan id="tspan1" style="fill:#336699;fill-opacity:1;stroke-width:1.31037">OS</tspan></tspan></text>
<text id="text19" style="font-family:Corbert;-inkscape-font-specification:Corbert;fill:#939dac" x="71.606674" xml:space="preserve" y="98.753876"><tspan id="tspan19" sodipodi:role="line" x="71.606674" y="98.753876">2025</tspan></text>
</svg>