<svg fill="none" height="102" id="svg18" inkscape:version="1.3.2 (091e20e, 2023-11-25, custom)" sodipodi:docname="svg_5.svg" version="1.1" viewbox="0 0 178 102" width="178" xmlns="http://www.w3.org/2000/svg" xmlns:inkscape="http://www.inkscape.org/namespaces/inkscape" xmlns:sodipodi="http://sodipodi.sourceforge.net/DTD/sodipodi-0.dtd" xmlns:svg="http://www.w3.org/2000/svg">
<sodipodi:namedview bordercolor="#000000" borderopacity="0.25" id="namedview18" inkscape:current-layer="svg18" inkscape:cx="89" inkscape:cy="50.938703" inkscape:deskcolor="#d1d1d1" inkscape:pagecheckerboard="0" inkscape:pageopacity="0.0" inkscape:showpageshadow="2" inkscape:window-height="1017" inkscape:window-maximized="1" inkscape:window-width="1920" inkscape:window-x="-8" inkscape:window-y="-8" inkscape:zoom="7.8820225" pagecolor="#ffffff" showguides="true"></sodipodi:namedview>
<rect fill="url(#paint0_linear_72_86)" height="99.8243" id="rect1" rx="13.8311" width="176.797" x="0.601351" y="0.601351"></rect>
<rect height="99.8243" id="rect2" rx="13.8311" stroke="url(#paint1_linear_72_86)" stroke-width="1.2027" width="176.797" x="0.601351" y="0.601351"></rect>
<circle cx="89.0135" cy="45.0135" fill="#9F852A" id="circle2" r="6.01351"></circle>
<path d="M57.476 54.9818V56.6685H52.7747V65.4324H50.6286V54.9818H57.476ZM52.0354 58.7931H54.4758C55.2988 58.7931 56.007 58.9295 56.6004 59.2022C57.1937 59.475 57.6507 59.8578 57.9713 60.3506C58.2919 60.8435 58.4522 61.4177 58.4522 62.0733C58.4522 62.5709 58.3613 63.0255 58.1794 63.437C57.9976 63.8437 57.732 64.1978 57.3827 64.4993C57.0382 64.796 56.6219 65.0256 56.1338 65.1883C55.6457 65.351 55.0931 65.4324 54.4758 65.4324H50.6286V54.9818H52.7891V63.7528H54.4758C54.8873 63.7528 55.2271 63.6763 55.495 63.5231C55.763 63.37 55.964 63.1666 56.0979 62.913C56.2367 62.6546 56.3061 62.3699 56.3061 62.0589C56.3061 61.7622 56.2367 61.4943 56.0979 61.255C55.964 61.011 55.763 60.8196 55.495 60.6808C55.2271 60.542 54.8873 60.4727 54.4758 60.4727H52.0354V58.7931ZM61.596 59.1592V68.4182H59.5288V57.6662H61.4452L61.596 59.1592ZM66.5126 61.4632V61.6139C66.5126 62.1785 66.4456 62.7025 66.3116 63.1858C66.1824 63.6691 65.991 64.0902 65.7374 64.449C65.4838 64.8031 65.168 65.0807 64.79 65.2816C64.4168 65.4778 63.9861 65.5759 63.498 65.5759C63.0243 65.5759 62.6128 65.4802 62.2635 65.2888C61.9142 65.0974 61.6199 64.8295 61.3806 64.4849C61.1462 64.1356 60.9572 63.7313 60.8136 63.2719C60.6701 62.8126 60.56 62.3197 60.4834 61.7933V61.3986C60.56 60.8339 60.6701 60.3171 60.8136 59.8482C60.9572 59.3745 61.1462 58.9654 61.3806 58.6208C61.6199 58.2715 61.9118 58.0012 62.2563 57.8098C62.6056 57.6184 63.0147 57.5227 63.4837 57.5227C63.9765 57.5227 64.4096 57.616 64.7828 57.8026C65.1608 57.9892 65.4767 58.2572 65.7303 58.6065C65.9887 58.9558 66.1824 59.3721 66.3116 59.8554C66.4456 60.3387 66.5126 60.8746 66.5126 61.4632ZM64.4383 61.6139V61.4632C64.4383 61.133 64.4096 60.8291 64.3522 60.5516C64.2995 60.2693 64.2134 60.0229 64.0938 59.8123C63.9789 59.6018 63.8258 59.4391 63.6344 59.3242C63.4478 59.2046 63.2205 59.1448 62.9525 59.1448C62.6702 59.1448 62.4286 59.1903 62.2276 59.2812C62.0314 59.3721 61.8711 59.5037 61.7467 59.6759C61.6223 59.8482 61.529 60.054 61.4668 60.2932C61.4046 60.5325 61.3663 60.8028 61.3519 61.1043V62.102C61.3759 62.4561 61.4428 62.7743 61.5529 63.0566C61.663 63.3341 61.8328 63.5542 62.0625 63.7169C62.2922 63.8796 62.5937 63.961 62.9669 63.961C63.2396 63.961 63.4693 63.9012 63.6559 63.7815C63.8426 63.6571 63.9933 63.4872 64.1081 63.2719C64.2278 63.0566 64.3115 62.8078 64.3593 62.5255C64.412 62.2431 64.4383 61.9393 64.4383 61.6139ZM67.4672 61.6283V61.4775C67.4672 60.9081 67.5486 60.3841 67.7113 59.9056C67.874 59.4223 68.1108 59.0036 68.4219 58.6496C68.7329 58.2955 69.1157 58.0203 69.5703 57.8241C70.0248 57.6232 70.5464 57.5227 71.135 57.5227C71.7235 57.5227 72.2475 57.6232 72.7069 57.8241C73.1662 58.0203 73.5514 58.2955 73.8625 58.6496C74.1783 59.0036 74.4175 59.4223 74.5802 59.9056C74.7429 60.3841 74.8243 60.9081 74.8243 61.4775V61.6283C74.8243 62.1929 74.7429 62.7169 74.5802 63.2001C74.4175 63.6786 74.1783 64.0973 73.8625 64.4562C73.5514 64.8103 73.1686 65.0855 72.7141 65.2816C72.2595 65.4778 71.7379 65.5759 71.1493 65.5759C70.5608 65.5759 70.0368 65.4778 69.5774 65.2816C69.1229 65.0855 68.7377 64.8103 68.4219 64.4562C68.1108 64.0973 67.874 63.6786 67.7113 63.2001C67.5486 62.7169 67.4672 62.1929 67.4672 61.6283ZM69.5344 61.4775V61.6283C69.5344 61.9536 69.5631 62.2575 69.6205 62.5398C69.6779 62.8221 69.7688 63.0709 69.8933 63.2863C70.0225 63.4968 70.1899 63.6619 70.3957 63.7815C70.6014 63.9012 70.8527 63.961 71.1493 63.961C71.4364 63.961 71.6829 63.9012 71.8886 63.7815C72.0944 63.6619 72.2595 63.4968 72.3839 63.2863C72.5083 63.0709 72.5992 62.8221 72.6566 62.5398C72.7188 62.2575 72.7499 61.9536 72.7499 61.6283V61.4775C72.7499 61.1617 72.7188 60.865 72.6566 60.5875C72.5992 60.3052 72.5059 60.0564 72.3767 59.841C72.2523 59.6209 72.0872 59.4487 71.8815 59.3242C71.6757 59.1998 71.4269 59.1376 71.135 59.1376C70.8431 59.1376 70.5943 59.1998 70.3885 59.3242C70.1875 59.4487 70.0225 59.6209 69.8933 59.841C69.7688 60.0564 69.6779 60.3052 69.6205 60.5875C69.5631 60.865 69.5344 61.1617 69.5344 61.4775ZM81.4133 60.8028V62.4106H77.4656V60.8028H81.4133ZM78.1547 57.6662V65.4324H76.0875V57.6662H78.1547ZM82.8129 57.6662V65.4324H80.7386V57.6662H82.8129ZM87.8803 61.7287H86.3443V60.8028H87.4425C87.7009 60.8028 87.9066 60.7669 88.0597 60.6952C88.2176 60.6234 88.3301 60.5229 88.3971 60.3937C88.4689 60.2597 88.5047 60.109 88.5047 59.9415C88.5047 59.7932 88.4736 59.652 88.4114 59.518C88.354 59.3793 88.2487 59.2668 88.0956 59.1807C87.9473 59.0898 87.7367 59.0443 87.464 59.0443C87.2391 59.0443 87.0381 59.0778 86.8611 59.1448C86.6888 59.2118 86.5524 59.3099 86.452 59.4391C86.3563 59.5635 86.3084 59.7142 86.3084 59.8913H84.2341C84.2341 59.3984 84.3752 58.9773 84.6576 58.628C84.9399 58.2739 85.3179 58.0036 85.7916 57.817C86.2653 57.6256 86.7845 57.5298 87.3492 57.5298C87.842 57.5298 88.287 57.5801 88.6842 57.6806C89.0813 57.7763 89.4211 57.9198 89.7034 58.1112C89.9857 58.3026 90.201 58.5395 90.3494 58.8218C90.5025 59.0993 90.5791 59.4223 90.5791 59.7908C90.5791 60.054 90.5169 60.3028 90.3924 60.5373C90.268 60.7717 90.0886 60.9799 89.8541 61.1617C89.6197 61.3388 89.335 61.4775 89 61.578C88.6698 61.6785 88.2966 61.7287 87.8803 61.7287ZM86.3443 61.212H87.8803C88.3444 61.212 88.7512 61.2574 89.1005 61.3483C89.4546 61.4345 89.7513 61.5637 89.9905 61.7359C90.2298 61.9082 90.4092 62.1211 90.5288 62.3747C90.6532 62.6235 90.7154 62.9106 90.7154 63.236C90.7154 63.6045 90.6341 63.9346 90.4714 64.2265C90.3087 64.5136 90.0766 64.7577 89.7752 64.9587C89.4737 65.1596 89.1172 65.3127 88.7057 65.418C88.2942 65.5233 87.842 65.5759 87.3492 65.5759C86.8228 65.5759 86.3108 65.4898 85.8131 65.3175C85.3155 65.1453 84.9064 64.8797 84.5858 64.5208C84.27 64.1619 84.1121 63.7002 84.1121 63.1355H86.1864C86.1864 63.2982 86.2342 63.4514 86.3299 63.5949C86.4256 63.7385 86.5692 63.8533 86.7606 63.9394C86.952 64.0208 87.1889 64.0615 87.4712 64.0615C87.7535 64.0615 87.9808 64.016 88.153 63.9251C88.3253 63.8342 88.4497 63.7145 88.5263 63.5662C88.6076 63.4131 88.6483 63.2552 88.6483 63.0925C88.6483 62.8628 88.6028 62.6762 88.5119 62.5326C88.4258 62.3891 88.2918 62.2838 88.11 62.2168C87.9329 62.1498 87.7104 62.1163 87.4425 62.1163H86.3443V61.212ZM91.6557 61.6283V61.4775C91.6557 60.9081 91.7371 60.3841 91.8997 59.9056C92.0624 59.4223 92.2993 59.0036 92.6103 58.6496C92.9214 58.2955 93.3042 58.0203 93.7587 57.8241C94.2133 57.6232 94.7349 57.5227 95.3235 57.5227C95.912 57.5227 96.436 57.6232 96.8953 57.8241C97.3547 58.0203 97.7399 58.2955 98.0509 58.6496C98.3667 59.0036 98.606 59.4223 98.7687 59.9056C98.9314 60.3841 99.0127 60.9081 99.0127 61.4775V61.6283C99.0127 62.1929 98.9314 62.7169 98.7687 63.2001C98.606 63.6786 98.3667 64.0973 98.0509 64.4562C97.7399 64.8103 97.3571 65.0855 96.9025 65.2816C96.4479 65.4778 95.9264 65.5759 95.3378 65.5759C94.7492 65.5759 94.2253 65.4778 93.7659 65.2816C93.3113 65.0855 92.9261 64.8103 92.6103 64.4562C92.2993 64.0973 92.0624 63.6786 91.8997 63.2001C91.7371 62.7169 91.6557 62.1929 91.6557 61.6283ZM93.7228 61.4775V61.6283C93.7228 61.9536 93.7516 62.2575 93.809 62.5398C93.8664 62.8221 93.9573 63.0709 94.0817 63.2863C94.2109 63.4968 94.3784 63.6619 94.5842 63.7815C94.7899 63.9012 95.0411 63.961 95.3378 63.961C95.6249 63.961 95.8713 63.9012 96.0771 63.7815C96.2829 63.6619 96.4479 63.4968 96.5724 63.2863C96.6968 63.0709 96.7877 62.8221 96.8451 62.5398C96.9073 62.2575 96.9384 61.9536 96.9384 61.6283V61.4775C96.9384 61.1617 96.9073 60.865 96.8451 60.5875C96.7877 60.3052 96.6944 60.0564 96.5652 59.841C96.4408 59.6209 96.2757 59.4487 96.0699 59.3242C95.8642 59.1998 95.6153 59.1376 95.3235 59.1376C95.0316 59.1376 94.7827 59.1998 94.577 59.3242C94.376 59.4487 94.2109 59.6209 94.0817 59.841C93.9573 60.0564 93.8664 60.3052 93.809 60.5875C93.7516 60.865 93.7228 61.1617 93.7228 61.4775ZM104.152 62.1881H101.719L101.704 60.8315H103.714C103.982 60.8315 104.2 60.8052 104.367 60.7526C104.535 60.6952 104.657 60.6114 104.733 60.5014C104.815 60.3865 104.855 60.2478 104.855 60.0851C104.855 59.9415 104.829 59.8195 104.776 59.719C104.728 59.6137 104.654 59.5276 104.554 59.4606C104.453 59.3936 104.327 59.3458 104.173 59.3171C104.025 59.2836 103.85 59.2668 103.649 59.2668H102.487V65.4324H100.42V57.6662H103.649C104.157 57.6662 104.611 57.7117 105.013 57.8026C105.415 57.8887 105.757 58.0203 106.04 58.1974C106.327 58.3744 106.544 58.5993 106.693 58.8721C106.846 59.14 106.922 59.4582 106.922 59.8267C106.922 60.0659 106.867 60.2908 106.757 60.5014C106.652 60.7119 106.494 60.8985 106.284 61.0612C106.073 61.2239 105.812 61.3579 105.501 61.4632C105.195 61.5637 104.841 61.6259 104.439 61.6498L104.152 62.1881ZM104.152 65.4324H101.209L101.92 63.8318H104.152C104.405 63.8318 104.614 63.8007 104.776 63.7385C104.939 63.6763 105.059 63.5853 105.135 63.4657C105.217 63.3413 105.257 63.193 105.257 63.0207C105.257 62.8532 105.221 62.7073 105.15 62.5829C105.078 62.4585 104.961 62.3628 104.798 62.2958C104.64 62.224 104.425 62.1881 104.152 62.1881H102.221L102.235 60.8315H104.432L104.934 61.377C105.48 61.4105 105.93 61.5134 106.284 61.6857C106.638 61.8579 106.899 62.078 107.066 62.346C107.238 62.6092 107.324 62.8987 107.324 63.2145C107.324 63.5829 107.255 63.9059 107.116 64.1835C106.977 64.461 106.772 64.6931 106.499 64.8797C106.231 65.0615 105.901 65.2003 105.508 65.296C105.116 65.3869 104.664 65.4324 104.152 65.4324ZM110.023 59.9702H112.277C112.985 59.9702 113.588 60.0875 114.086 60.3219C114.588 60.5516 114.971 60.8722 115.234 61.2837C115.502 61.6952 115.636 62.1714 115.636 62.7121C115.636 63.1044 115.559 63.4681 115.406 63.8031C115.258 64.1332 115.04 64.4203 114.753 64.6644C114.466 64.9084 114.114 65.0974 113.698 65.2314C113.282 65.3654 112.808 65.4324 112.277 65.4324H108.731V57.6662H110.806V63.8246H112.277C112.588 63.8246 112.837 63.7744 113.023 63.6739C113.215 63.5686 113.354 63.4322 113.44 63.2647C113.531 63.0973 113.576 62.9154 113.576 62.7192C113.576 62.5135 113.531 62.3269 113.44 62.1594C113.354 61.9871 113.215 61.8484 113.023 61.7431C112.837 61.6378 112.588 61.5852 112.277 61.5852H110.023V59.9702ZM118.952 57.6662V65.4324H116.885V57.6662H118.952ZM122.828 62.547L125.433 57.6662H127.501V65.4324H125.433V60.5444L122.828 65.4324H120.761V57.6662H122.828V62.547ZM125.197 54.544H126.668C126.668 54.9555 126.565 55.3215 126.359 55.6421C126.158 55.958 125.871 56.2068 125.498 56.3886C125.125 56.5657 124.685 56.6542 124.177 56.6542C123.407 56.6542 122.797 56.458 122.347 56.0656C121.902 55.6732 121.68 55.166 121.68 54.544H123.144C123.144 54.7928 123.22 55.0153 123.373 55.2115C123.531 55.4077 123.799 55.5058 124.177 55.5058C124.551 55.5058 124.814 55.4077 124.967 55.2115C125.12 55.0153 125.197 54.7928 125.197 54.544Z" fill="#2A3038" id="path3"></path>
<path d="M66.4374 70.896V71.9941H62.5113V70.896H66.4374ZM62.7051 70.896V78.6621H61.3772V70.896H62.7051ZM67.6145 70.896V78.6621H66.2795V70.896H67.6145ZM74.3256 77.3343V73.3363C74.3256 73.0301 74.2634 72.7645 74.139 72.5396C74.0193 72.3099 73.8375 72.1329 73.5935 72.0085C73.3494 71.8841 73.048 71.8219 72.6891 71.8219C72.3541 71.8219 72.0599 71.8793 71.8062 71.9941C71.5574 72.109 71.3612 72.2597 71.2177 72.4463C71.0789 72.6329 71.0095 72.8339 71.0095 73.0492H69.6817C69.6817 72.7717 69.7535 72.4966 69.897 72.2238C70.0406 71.9511 70.2463 71.7046 70.5143 71.4845C70.787 71.2596 71.1124 71.0826 71.4904 70.9534C71.8732 70.8194 72.2991 70.7524 72.768 70.7524C73.3327 70.7524 73.8303 70.8481 74.261 71.0395C74.6964 71.2309 75.0362 71.5204 75.2802 71.908C75.529 72.2908 75.6534 72.7717 75.6534 73.3507V76.9682C75.6534 77.2266 75.675 77.5017 75.718 77.7936C75.7659 78.0855 75.8353 78.3367 75.9262 78.5473V78.6621H74.5409C74.4739 78.509 74.4213 78.3056 74.383 78.052C74.3447 77.7936 74.3256 77.5544 74.3256 77.3343ZM74.5553 73.9536L74.5696 74.8867H73.2274C72.8494 74.8867 72.512 74.9178 72.2154 74.98C71.9187 75.0374 71.6699 75.126 71.4689 75.2456C71.2679 75.3652 71.1148 75.5159 71.0095 75.6978C70.9043 75.8748 70.8516 76.083 70.8516 76.3222C70.8516 76.5663 70.9067 76.7888 71.0167 76.9897C71.1268 77.1907 71.2918 77.351 71.512 77.4706C71.7369 77.5855 72.012 77.6429 72.3374 77.6429C72.7441 77.6429 73.103 77.5568 73.414 77.3845C73.7251 77.2122 73.9715 77.0017 74.1533 76.7529C74.3399 76.504 74.4404 76.2624 74.4548 76.0279L75.0218 76.6667C74.9883 76.8677 74.8974 77.0902 74.7491 77.3343C74.6007 77.5783 74.4021 77.8128 74.1533 78.0377C73.9093 78.2578 73.6174 78.442 73.2776 78.5903C72.9427 78.7339 72.5647 78.8057 72.1436 78.8057C71.6172 78.8057 71.1555 78.7028 70.7583 78.497C70.3659 78.2913 70.0597 78.0161 69.8396 77.6716C69.6243 77.3223 69.5166 76.9323 69.5166 76.5017C69.5166 76.0854 69.5979 75.7193 69.7606 75.4035C69.9233 75.0829 70.1578 74.8173 70.464 74.6068C70.7703 74.3914 71.1387 74.2288 71.5694 74.1187C72 74.0086 72.4809 73.9536 73.0121 73.9536H74.5553ZM79.07 72.3889V81.648H77.7349V70.896H78.9551L79.07 72.3889ZM84.3024 74.7144V74.8652C84.3024 75.4298 84.2354 75.9538 84.1014 76.4371C83.9675 76.9156 83.7713 77.3319 83.5129 77.686C83.2593 78.0401 82.9459 78.3152 82.5726 78.5114C82.1994 78.7076 81.7711 78.8057 81.2878 78.8057C80.795 78.8057 80.3595 78.7243 79.9815 78.5616C79.6035 78.3989 79.2829 78.1621 79.0197 77.851C78.7565 77.54 78.546 77.1668 78.3881 76.7313C78.235 76.2959 78.1297 75.8054 78.0723 75.2599V74.456C78.1297 73.8818 78.2374 73.3674 78.3953 72.9129C78.5532 72.4583 78.7613 72.0707 79.0197 71.7501C79.2829 71.4247 79.6011 71.1783 79.9743 71.0108C80.3476 70.8385 80.7782 70.7524 81.2663 70.7524C81.7544 70.7524 82.1874 70.8481 82.5654 71.0395C82.9435 71.2261 83.2617 71.4941 83.5201 71.8434C83.7785 72.1927 83.9723 72.6114 84.1014 73.0995C84.2354 73.5828 84.3024 74.1211 84.3024 74.7144ZM82.9674 74.8652V74.7144C82.9674 74.3268 82.9267 73.9632 82.8454 73.6234C82.764 73.2789 82.6372 72.9775 82.465 72.7191C82.2975 72.4559 82.0822 72.2501 81.819 72.1018C81.5558 71.9487 81.2424 71.8721 80.8787 71.8721C80.5438 71.8721 80.2519 71.9295 80.003 72.0444C79.759 72.1592 79.5509 72.3147 79.3786 72.5109C79.2063 72.7023 79.0652 72.9224 78.9551 73.1713C78.8498 73.4153 78.7709 73.6689 78.7183 73.9321V75.7911C78.814 76.126 78.9479 76.4418 79.1202 76.7385C79.2925 77.0304 79.5221 77.2673 79.8093 77.4491C80.0964 77.6261 80.4576 77.7147 80.8931 77.7147C81.2519 77.7147 81.5606 77.6405 81.819 77.4922C82.0822 77.339 82.2975 77.1309 82.465 76.8677C82.6372 76.6045 82.764 76.3031 82.8454 75.9633C82.9267 75.6188 82.9674 75.2528 82.9674 74.8652ZM88.5874 70.896V78.6621H87.2524V70.896H88.5874ZM91.1929 70.896V71.9726H84.6972V70.896H91.1929ZM97.7676 74.2622V75.3389H93.662V74.2622H97.7676ZM93.9419 70.896V78.6621H92.6141V70.896H93.9419ZM98.8442 70.896V78.6621H97.5092V70.896H98.8442ZM104.206 78.8057C103.665 78.8057 103.175 78.7147 102.734 78.5329C102.299 78.3463 101.923 78.0855 101.608 77.7506C101.297 77.4156 101.057 77.0184 100.89 76.5591C100.722 76.0997 100.639 75.5973 100.639 75.0518V74.7503C100.639 74.1187 100.732 73.5565 100.919 73.0636C101.105 72.5659 101.359 72.1449 101.679 71.8003C102 71.4558 102.364 71.195 102.77 71.018C103.177 70.8409 103.598 70.7524 104.034 70.7524C104.589 70.7524 105.067 70.8481 105.469 71.0395C105.876 71.2309 106.208 71.4989 106.467 71.8434C106.725 72.1831 106.917 72.5851 107.041 73.0492C107.165 73.5086 107.228 74.011 107.228 74.5565V75.1523H101.428V74.0685H105.9V73.968C105.881 73.6234 105.809 73.2885 105.684 72.9631C105.565 72.6377 105.373 72.3698 105.11 72.1592C104.847 71.9487 104.488 71.8434 104.034 71.8434C103.732 71.8434 103.455 71.908 103.201 72.0372C102.947 72.1616 102.73 72.3482 102.548 72.597C102.366 72.8459 102.225 73.1497 102.124 73.5086C102.024 73.8675 101.974 74.2814 101.974 74.7503V75.0518C101.974 75.4202 102.024 75.7671 102.124 76.0925C102.23 76.4131 102.38 76.6955 102.577 76.9395C102.778 77.1835 103.019 77.3749 103.302 77.5137C103.589 77.6525 103.914 77.7218 104.278 77.7218C104.747 77.7218 105.144 77.6261 105.469 77.4347C105.795 77.2433 106.079 76.9873 106.323 76.6667L107.127 77.3055C106.96 77.5592 106.747 77.8008 106.488 78.0305C106.23 78.2602 105.912 78.4468 105.534 78.5903C105.16 78.7339 104.718 78.8057 104.206 78.8057ZM101.715 68.8216C101.715 68.6063 101.782 68.4245 101.916 68.2761C102.05 68.1278 102.244 68.0536 102.498 68.0536C102.756 68.0536 102.952 68.1278 103.086 68.2761C103.22 68.4245 103.287 68.6063 103.287 68.8216C103.287 69.0274 103.22 69.2044 103.086 69.3528C102.952 69.4963 102.756 69.5681 102.498 69.5681C102.244 69.5681 102.05 69.4963 101.916 69.3528C101.782 69.2044 101.715 69.0274 101.715 68.8216ZM104.809 68.836C104.809 68.6207 104.873 68.4388 105.003 68.2905C105.137 68.1422 105.333 68.068 105.591 68.068C105.845 68.068 106.039 68.1422 106.173 68.2905C106.311 68.4388 106.381 68.6207 106.381 68.836C106.381 69.0417 106.311 69.2188 106.173 69.3671C106.039 69.5107 105.845 69.5825 105.591 69.5825C105.333 69.5825 105.137 69.5107 105.003 69.3671C104.873 69.2188 104.809 69.0417 104.809 68.836ZM110.106 72.3889V81.648H108.771V70.896H109.991L110.106 72.3889ZM115.338 74.7144V74.8652C115.338 75.4298 115.271 75.9538 115.137 76.4371C115.003 76.9156 114.807 77.3319 114.549 77.686C114.295 78.0401 113.982 78.3152 113.609 78.5114C113.235 78.7076 112.807 78.8057 112.324 78.8057C111.831 78.8057 111.395 78.7243 111.017 78.5616C110.639 78.3989 110.319 78.1621 110.056 77.851C109.792 77.54 109.582 77.1668 109.424 76.7313C109.271 76.2959 109.166 75.8054 109.108 75.2599V74.456C109.166 73.8818 109.273 73.3674 109.431 72.9129C109.589 72.4583 109.797 72.0707 110.056 71.7501C110.319 71.4247 110.637 71.1783 111.01 71.0108C111.383 70.8385 111.814 70.7524 112.302 70.7524C112.79 70.7524 113.223 70.8481 113.601 71.0395C113.979 71.2261 114.298 71.4941 114.556 71.8434C114.814 72.1927 115.008 72.6114 115.137 73.0995C115.271 73.5828 115.338 74.1211 115.338 74.7144ZM114.003 74.8652V74.7144C114.003 74.3268 113.963 73.9632 113.881 73.6234C113.8 73.2789 113.673 72.9775 113.501 72.7191C113.333 72.4559 113.118 72.2501 112.855 72.1018C112.592 71.9487 112.278 71.8721 111.915 71.8721C111.58 71.8721 111.288 71.9295 111.039 72.0444C110.795 72.1592 110.587 72.3147 110.414 72.5109C110.242 72.7023 110.101 72.9224 109.991 73.1713C109.886 73.4153 109.807 73.6689 109.754 73.9321V75.7911C109.85 76.126 109.984 76.4418 110.156 76.7385C110.328 77.0304 110.558 77.2673 110.845 77.4491C111.132 77.6261 111.494 77.7147 111.929 77.7147C112.288 77.7147 112.596 77.6405 112.855 77.4922C113.118 77.339 113.333 77.1309 113.501 76.8677C113.673 76.6045 113.8 76.3031 113.881 75.9633C113.963 75.6188 114.003 75.2528 114.003 74.8652Z" fill="#2A3038" id="path4"></path>
<mask height="14" id="mask0_72_86" maskunits="userSpaceOnUse" style="mask-type:luminance" width="92" x="43" y="10">
<path d="M134.21 10.2461H43.2974V23.6488H134.21V10.2461Z" fill="white" id="path5"></path>
</mask>
<defs id="defs18">
<lineargradient gradientunits="userSpaceOnUse" id="paint0_linear_72_86" x1="0" x2="86.7381" y1="0" y2="152.824">
<stop stop-color="#DFC397"></stop>
<stop offset="0.345" stop-color="#D4AC6D"></stop>
<stop offset="0.49" stop-color="#EBD3AE"></stop>
<stop offset="0.61" stop-color="#D1A662"></stop>
<stop offset="1" stop-color="white"></stop>
<stop offset="1" stop-color="#DFC397"></stop>
</lineargradient>
<lineargradient gradientunits="userSpaceOnUse" id="paint1_linear_72_86" x1="178" x2="91.2619" y1="101.027" y2="-51.7973">
<stop stop-color="#F1E3B2"></stop>
<stop offset="0.5" stop-color="#9F852A"></stop>
<stop offset="1" stop-color="#F1E3B2"></stop>
</lineargradient>
</defs>
<text id="text14" style="font-size:15.7244px;fill:#000000;stroke-width:1.31037" x="48.792358" xml:space="preserve" y="19.736277"><tspan id="tspan14" sodipodi:role="line" style="font-style:normal;font-variant:normal;font-weight:normal;font-stretch:normal;font-family:Corbert;-inkscape-font-specification:Corbert;stroke-width:1.31037" x="48.792358" y="19.736277">Partner<tspan id="tspan1" style="fill:#336699;fill-opacity:1;stroke-width:1.31037">OS</tspan></tspan></text>
<text id="text19" style="font-family:Corbert;-inkscape-font-specification:Corbert;fill:#aa8800" x="72.337967" xml:space="preserve" y="98.363998"><tspan id="tspan19" sodipodi:role="line" x="72.337967" y="98.363998">2025</tspan></text>
</svg>