<svg fill="none" height="102" id="svg19" inkscape:version="1.3.2 (091e20e, 2023-11-25, custom)" sodipodi:docname="svg_3.svg" version="1.1" viewbox="0 0 178 102" width="178" xmlns="http://www.w3.org/2000/svg" xmlns:inkscape="http://www.inkscape.org/namespaces/inkscape" xmlns:sodipodi="http://sodipodi.sourceforge.net/DTD/sodipodi-0.dtd" xmlns:svg="http://www.w3.org/2000/svg">
<sodipodi:namedview bordercolor="#000000" borderopacity="0.25" id="namedview19" inkscape:current-layer="svg19" inkscape:cx="89" inkscape:cy="50.938703" inkscape:deskcolor="#d1d1d1" inkscape:pagecheckerboard="0" inkscape:pageopacity="0.0" inkscape:showpageshadow="2" inkscape:window-height="1017" inkscape:window-maximized="1" inkscape:window-width="1920" inkscape:window-x="-8" inkscape:window-y="-8" inkscape:zoom="7.8820225" pagecolor="#ffffff"></sodipodi:namedview>
<rect fill="url(#paint0_linear_72_31)" height="99.8243" id="rect1" rx="13.8311" width="176.797" x="0.601351" y="0.601351"></rect>
<rect height="99.8243" id="rect2" rx="13.8311" stroke="url(#paint1_linear_72_31)" stroke-width="1.2027" width="176.797" x="0.601351" y="0.601351"></rect>
<circle cx="80.0135" cy="45.0135" fill="#E9CC65" id="circle2" r="6.01351"></circle>
<circle cx="88.4325" cy="45.0135" fill="#FFD953" id="circle3" r="6.01351"></circle>
<circle cx="96.8514" cy="45.0135" fill="#FFE99D" id="circle4" r="6.01351"></circle>
<path d="M64.5412 60.4224H62.9191V59.2812H64.211C64.5891 59.2812 64.8953 59.2238 65.1298 59.1089C65.3642 58.9893 65.5365 58.8218 65.6466 58.6065C65.7566 58.3912 65.8116 58.1376 65.8116 57.8457C65.8116 57.6064 65.7494 57.3863 65.625 57.1853C65.5054 56.9844 65.3188 56.8241 65.0652 56.7044C64.8116 56.58 64.4886 56.5178 64.0962 56.5178C63.7995 56.5178 63.5292 56.5704 63.2851 56.6757C63.0411 56.781 62.8473 56.9293 62.7037 57.1207C62.5602 57.3073 62.4884 57.5346 62.4884 57.8026H60.3423C60.3423 57.3432 60.4404 56.9317 60.6366 56.5681C60.8376 56.1996 61.1103 55.8886 61.4548 55.635C61.8042 55.3766 62.2061 55.1804 62.6607 55.0464C63.1153 54.9124 63.5938 54.8454 64.0962 54.8454C64.6848 54.8454 65.2159 54.91 65.6896 55.0392C66.1633 55.1636 66.5701 55.3503 66.9098 55.5991C67.2496 55.8479 67.5103 56.1565 67.6922 56.525C67.874 56.8934 67.9649 57.3217 67.9649 57.8098C67.9649 58.1687 67.8836 58.506 67.7209 58.8218C67.5582 59.1376 67.3261 59.4152 67.0247 59.6544C66.7232 59.8937 66.3619 60.0827 65.9408 60.2214C65.5198 60.3554 65.0532 60.4224 64.5412 60.4224ZM62.9191 59.798H64.5412C65.1106 59.798 65.6155 59.8578 66.0557 59.9774C66.5007 60.097 66.8763 60.2717 67.1826 60.5014C67.4936 60.7311 67.7281 61.0158 67.886 61.3555C68.0487 61.6905 68.13 62.0757 68.13 62.5111C68.13 62.9992 68.0295 63.4322 67.8285 63.8102C67.6324 64.1883 67.3524 64.5089 66.9888 64.772C66.6299 65.0352 66.204 65.2338 65.7112 65.3678C65.2231 65.5018 64.6848 65.5687 64.0962 65.5687C63.6273 65.5687 63.1607 65.5113 62.6966 65.3965C62.2324 65.2769 61.8113 65.095 61.4333 64.851C61.0553 64.607 60.7538 64.2935 60.5289 63.9107C60.304 63.5279 60.1916 63.0686 60.1916 62.5326H62.352C62.352 62.7862 62.4262 63.0183 62.5746 63.2289C62.7229 63.4346 62.9286 63.5997 63.1918 63.7241C63.455 63.8437 63.7565 63.9035 64.0962 63.9035C64.4934 63.9035 64.8307 63.8413 65.1082 63.7169C65.3906 63.5925 65.6035 63.4226 65.747 63.2073C65.8954 62.9872 65.9696 62.7456 65.9696 62.4824C65.9696 62.2001 65.9313 61.9608 65.8547 61.7646C65.7781 61.5684 65.6657 61.4081 65.5174 61.2837C65.369 61.1545 65.1848 61.0612 64.9647 61.0038C64.7494 60.9464 64.4981 60.9177 64.211 60.9177H62.9191V59.798ZM69.2641 61.6283V61.4775C69.2641 60.9081 69.3454 60.3841 69.5081 59.9056C69.6708 59.4223 69.9077 59.0036 70.2187 58.6496C70.5297 58.2955 70.9125 58.0203 71.3671 57.8241C71.8217 57.6232 72.3433 57.5227 72.9318 57.5227C73.5204 57.5227 74.0443 57.6232 74.5037 57.8241C74.9631 58.0203 75.3483 58.2955 75.6593 58.6496C75.9751 59.0036 76.2144 59.4223 76.3771 59.9056C76.5397 60.3841 76.6211 60.9081 76.6211 61.4775V61.6283C76.6211 62.1929 76.5397 62.7169 76.3771 63.2001C76.2144 63.6786 75.9751 64.0973 75.6593 64.4562C75.3483 64.8103 74.9655 65.0855 74.5109 65.2816C74.0563 65.4778 73.5347 65.5759 72.9462 65.5759C72.3576 65.5759 71.8336 65.4778 71.3743 65.2816C70.9197 65.0855 70.5345 64.8103 70.2187 64.4562C69.9077 64.0973 69.6708 63.6786 69.5081 63.2001C69.3454 62.7169 69.2641 62.1929 69.2641 61.6283ZM71.3312 61.4775V61.6283C71.3312 61.9536 71.3599 62.2575 71.4173 62.5398C71.4748 62.8221 71.5657 63.0709 71.6901 63.2863C71.8193 63.4968 71.9868 63.6619 72.1925 63.7815C72.3983 63.9012 72.6495 63.961 72.9462 63.961C73.2333 63.961 73.4797 63.9012 73.6855 63.7815C73.8912 63.6619 74.0563 63.4968 74.1807 63.2863C74.3051 63.0709 74.396 62.8221 74.4535 62.5398C74.5157 62.2575 74.5468 61.9536 74.5468 61.6283V61.4775C74.5468 61.1617 74.5157 60.865 74.4535 60.5875C74.396 60.3052 74.3027 60.0564 74.1735 59.841C74.0491 59.6209 73.884 59.4487 73.6783 59.3242C73.4725 59.1998 73.2237 59.1376 72.9318 59.1376C72.6399 59.1376 72.3911 59.1998 72.1853 59.3242C71.9844 59.4487 71.8193 59.6209 71.6901 59.841C71.5657 60.0564 71.4748 60.3052 71.4173 60.5875C71.3599 60.865 71.3312 61.1617 71.3312 61.4775ZM83.002 57.6662V59.2884H79.1835V57.6662H83.002ZM84.5164 57.6662V65.4324H82.4493V57.6662H84.5164ZM78.6667 57.6662H80.698L80.4898 61.5852C80.4611 62.145 80.4013 62.6379 80.3104 63.0638C80.2195 63.4896 80.0974 63.8533 79.9443 64.1548C79.796 64.4562 79.6165 64.7027 79.406 64.8941C79.2002 65.0807 78.9586 65.217 78.6811 65.3032C78.4083 65.3893 78.1069 65.4324 77.7767 65.4324H77.1451L77.1235 63.8031L77.3891 63.7744C77.5422 63.76 77.6762 63.7169 77.791 63.6452C77.9107 63.5686 78.0112 63.4609 78.0925 63.3222C78.1786 63.1786 78.2504 62.9992 78.3078 62.7838C78.3652 62.5637 78.4107 62.3053 78.4442 62.0087C78.4825 61.712 78.5088 61.3699 78.5232 60.9823L78.6667 57.6662ZM85.7869 61.6283V61.4775C85.7869 60.9081 85.8682 60.3841 86.0309 59.9056C86.1936 59.4223 86.4305 59.0036 86.7415 58.6496C87.0525 58.2955 87.4353 58.0203 87.8899 57.8241C88.3445 57.6232 88.8661 57.5227 89.4546 57.5227C90.0432 57.5227 90.5671 57.6232 91.0265 57.8241C91.4859 58.0203 91.8711 58.2955 92.1821 58.6496C92.4979 59.0036 92.7372 59.4223 92.8999 59.9056C93.0626 60.3841 93.1439 60.9081 93.1439 61.4775V61.6283C93.1439 62.1929 93.0626 62.7169 92.8999 63.2001C92.7372 63.6786 92.4979 64.0973 92.1821 64.4562C91.8711 64.8103 91.4883 65.0855 91.0337 65.2816C90.5791 65.4778 90.0575 65.5759 89.469 65.5759C88.8804 65.5759 88.3564 65.4778 87.8971 65.2816C87.4425 65.0855 87.0573 64.8103 86.7415 64.4562C86.4305 64.0973 86.1936 63.6786 86.0309 63.2001C85.8682 62.7169 85.7869 62.1929 85.7869 61.6283ZM87.854 61.4775V61.6283C87.854 61.9536 87.8827 62.2575 87.9401 62.5398C87.9976 62.8221 88.0885 63.0709 88.2129 63.2863C88.3421 63.4968 88.5096 63.6619 88.7153 63.7815C88.9211 63.9012 89.1723 63.961 89.469 63.961C89.7561 63.961 90.0025 63.9012 90.2083 63.7815C90.414 63.6619 90.5791 63.4968 90.7035 63.2863C90.8279 63.0709 90.9188 62.8221 90.9763 62.5398C91.0385 62.2575 91.0696 61.9536 91.0696 61.6283V61.4775C91.0696 61.1617 91.0385 60.865 90.9763 60.5875C90.9188 60.3052 90.8255 60.0564 90.6963 59.841C90.5719 59.6209 90.4068 59.4487 90.2011 59.3242C89.9953 59.1998 89.7465 59.1376 89.4546 59.1376C89.1627 59.1376 88.9139 59.1998 88.7082 59.3242C88.5072 59.4487 88.3421 59.6209 88.2129 59.841C88.0885 60.0564 87.9976 60.3052 87.9401 60.5875C87.8827 60.865 87.854 61.1617 87.854 61.4775ZM98.1682 57.6662V65.4324H96.0939V57.6662H98.1682ZM100.666 57.6662V59.2668H93.632V57.6662H100.666ZM101.147 61.6283V61.4775C101.147 60.9081 101.228 60.3841 101.391 59.9056C101.554 59.4223 101.791 59.0036 102.102 58.6496C102.413 58.2955 102.795 58.0203 103.25 57.8241C103.705 57.6232 104.226 57.5227 104.815 57.5227C105.403 57.5227 105.927 57.6232 106.387 57.8241C106.846 58.0203 107.231 58.2955 107.542 58.6496C107.858 59.0036 108.097 59.4223 108.26 59.9056C108.423 60.3841 108.504 60.9081 108.504 61.4775V61.6283C108.504 62.1929 108.423 62.7169 108.26 63.2001C108.097 63.6786 107.858 64.0973 107.542 64.4562C107.231 64.8103 106.848 65.0855 106.394 65.2816C105.939 65.4778 105.418 65.5759 104.829 65.5759C104.24 65.5759 103.716 65.4778 103.257 65.2816C102.803 65.0855 102.417 64.8103 102.102 64.4562C101.791 64.0973 101.554 63.6786 101.391 63.2001C101.228 62.7169 101.147 62.1929 101.147 61.6283ZM103.214 61.4775V61.6283C103.214 61.9536 103.243 62.2575 103.3 62.5398C103.358 62.8221 103.449 63.0709 103.573 63.2863C103.702 63.4968 103.87 63.6619 104.075 63.7815C104.281 63.9012 104.532 63.961 104.829 63.961C105.116 63.961 105.363 63.9012 105.568 63.7815C105.774 63.6619 105.939 63.4968 106.064 63.2863C106.188 63.0709 106.279 62.8221 106.336 62.5398C106.399 62.2575 106.43 61.9536 106.43 61.6283V61.4775C106.43 61.1617 106.399 60.865 106.336 60.5875C106.279 60.3052 106.186 60.0564 106.056 59.841C105.932 59.6209 105.767 59.4487 105.561 59.3242C105.355 59.1998 105.107 59.1376 104.815 59.1376C104.523 59.1376 104.274 59.1998 104.068 59.3242C103.867 59.4487 103.702 59.6209 103.573 59.841C103.449 60.0564 103.358 60.3052 103.3 60.5875C103.243 60.865 103.214 61.1617 103.214 61.4775ZM111.834 62.547L114.44 57.6662H116.507V65.4324H114.44V60.5444L111.834 65.4324H109.767V57.6662H111.834V62.547ZM114.203 54.544H115.674C115.674 54.9555 115.571 55.3215 115.366 55.6421C115.165 55.958 114.878 56.2068 114.504 56.3886C114.131 56.5657 113.691 56.6542 113.184 56.6542C112.413 56.6542 111.803 56.458 111.353 56.0656C110.908 55.6732 110.686 55.166 110.686 54.544H112.15C112.15 54.7928 112.227 55.0153 112.38 55.2115C112.538 55.4077 112.806 55.5058 113.184 55.5058C113.557 55.5058 113.82 55.4077 113.973 55.2115C114.126 55.0153 114.203 54.7928 114.203 54.544Z" fill="#2A3038" id="path4"></path>
<path d="M66.4374 70.896V71.9941H62.5113V70.896H66.4374ZM62.7051 70.896V78.6621H61.3772V70.896H62.7051ZM67.6145 70.896V78.6621H66.2795V70.896H67.6145ZM74.3256 77.3343V73.3363C74.3256 73.0301 74.2634 72.7645 74.139 72.5396C74.0193 72.3099 73.8375 72.1329 73.5935 72.0085C73.3494 71.8841 73.048 71.8219 72.6891 71.8219C72.3541 71.8219 72.0599 71.8793 71.8062 71.9941C71.5574 72.109 71.3612 72.2597 71.2177 72.4463C71.0789 72.6329 71.0095 72.8339 71.0095 73.0492H69.6817C69.6817 72.7717 69.7535 72.4966 69.897 72.2238C70.0406 71.9511 70.2463 71.7046 70.5143 71.4845C70.787 71.2596 71.1124 71.0826 71.4904 70.9534C71.8732 70.8194 72.2991 70.7524 72.768 70.7524C73.3327 70.7524 73.8303 70.8481 74.261 71.0395C74.6964 71.2309 75.0362 71.5204 75.2802 71.908C75.529 72.2908 75.6534 72.7717 75.6534 73.3507V76.9682C75.6534 77.2266 75.675 77.5017 75.718 77.7936C75.7659 78.0855 75.8353 78.3367 75.9262 78.5473V78.6621H74.5409C74.4739 78.509 74.4213 78.3056 74.383 78.052C74.3447 77.7936 74.3256 77.5544 74.3256 77.3343ZM74.5553 73.9536L74.5696 74.8867H73.2274C72.8494 74.8867 72.512 74.9178 72.2154 74.98C71.9187 75.0374 71.6699 75.126 71.4689 75.2456C71.2679 75.3652 71.1148 75.5159 71.0095 75.6978C70.9043 75.8748 70.8516 76.083 70.8516 76.3222C70.8516 76.5663 70.9067 76.7888 71.0167 76.9897C71.1268 77.1907 71.2918 77.351 71.512 77.4706C71.7369 77.5855 72.012 77.6429 72.3374 77.6429C72.7441 77.6429 73.103 77.5568 73.414 77.3845C73.7251 77.2122 73.9715 77.0017 74.1533 76.7529C74.3399 76.504 74.4404 76.2624 74.4548 76.0279L75.0218 76.6667C74.9883 76.8677 74.8974 77.0902 74.7491 77.3343C74.6007 77.5783 74.4021 77.8128 74.1533 78.0377C73.9093 78.2578 73.6174 78.442 73.2776 78.5903C72.9427 78.7339 72.5647 78.8057 72.1436 78.8057C71.6172 78.8057 71.1555 78.7028 70.7583 78.497C70.3659 78.2913 70.0597 78.0161 69.8396 77.6716C69.6243 77.3223 69.5166 76.9323 69.5166 76.5017C69.5166 76.0854 69.5979 75.7193 69.7606 75.4035C69.9233 75.0829 70.1578 74.8173 70.464 74.6068C70.7703 74.3914 71.1387 74.2288 71.5694 74.1187C72 74.0086 72.4809 73.9536 73.0121 73.9536H74.5553ZM79.07 72.3889V81.648H77.7349V70.896H78.9551L79.07 72.3889ZM84.3024 74.7144V74.8652C84.3024 75.4298 84.2354 75.9538 84.1014 76.4371C83.9675 76.9156 83.7713 77.3319 83.5129 77.686C83.2593 78.0401 82.9459 78.3152 82.5726 78.5114C82.1994 78.7076 81.7711 78.8057 81.2878 78.8057C80.795 78.8057 80.3595 78.7243 79.9815 78.5616C79.6035 78.3989 79.2829 78.1621 79.0197 77.851C78.7565 77.54 78.546 77.1668 78.3881 76.7313C78.235 76.2959 78.1297 75.8054 78.0723 75.2599V74.456C78.1297 73.8818 78.2374 73.3674 78.3953 72.9129C78.5532 72.4583 78.7613 72.0707 79.0197 71.7501C79.2829 71.4247 79.6011 71.1783 79.9743 71.0108C80.3476 70.8385 80.7782 70.7524 81.2663 70.7524C81.7544 70.7524 82.1874 70.8481 82.5654 71.0395C82.9435 71.2261 83.2617 71.4941 83.5201 71.8434C83.7785 72.1927 83.9723 72.6114 84.1014 73.0995C84.2354 73.5828 84.3024 74.1211 84.3024 74.7144ZM82.9674 74.8652V74.7144C82.9674 74.3268 82.9267 73.9632 82.8454 73.6234C82.764 73.2789 82.6372 72.9775 82.465 72.7191C82.2975 72.4559 82.0822 72.2501 81.819 72.1018C81.5558 71.9487 81.2424 71.8721 80.8787 71.8721C80.5438 71.8721 80.2519 71.9295 80.003 72.0444C79.759 72.1592 79.5509 72.3147 79.3786 72.5109C79.2063 72.7023 79.0652 72.9224 78.9551 73.1713C78.8498 73.4153 78.7709 73.6689 78.7183 73.9321V75.7911C78.814 76.126 78.9479 76.4418 79.1202 76.7385C79.2925 77.0304 79.5221 77.2673 79.8093 77.4491C80.0964 77.6261 80.4576 77.7147 80.8931 77.7147C81.2519 77.7147 81.5606 77.6405 81.819 77.4922C82.0822 77.339 82.2975 77.1309 82.465 76.8677C82.6372 76.6045 82.764 76.3031 82.8454 75.9633C82.9267 75.6188 82.9674 75.2528 82.9674 74.8652ZM88.5874 70.896V78.6621H87.2524V70.896H88.5874ZM91.1929 70.896V71.9726H84.6972V70.896H91.1929ZM97.7676 74.2622V75.3389H93.662V74.2622H97.7676ZM93.9419 70.896V78.6621H92.6141V70.896H93.9419ZM98.8442 70.896V78.6621H97.5092V70.896H98.8442ZM104.206 78.8057C103.665 78.8057 103.175 78.7147 102.734 78.5329C102.299 78.3463 101.923 78.0855 101.608 77.7506C101.297 77.4156 101.057 77.0184 100.89 76.5591C100.722 76.0997 100.639 75.5973 100.639 75.0518V74.7503C100.639 74.1187 100.732 73.5565 100.919 73.0636C101.105 72.5659 101.359 72.1449 101.679 71.8003C102 71.4558 102.364 71.195 102.77 71.018C103.177 70.8409 103.598 70.7524 104.034 70.7524C104.589 70.7524 105.067 70.8481 105.469 71.0395C105.876 71.2309 106.208 71.4989 106.467 71.8434C106.725 72.1831 106.917 72.5851 107.041 73.0492C107.165 73.5086 107.228 74.011 107.228 74.5565V75.1523H101.428V74.0685H105.9V73.968C105.881 73.6234 105.809 73.2885 105.684 72.9631C105.565 72.6377 105.373 72.3698 105.11 72.1592C104.847 71.9487 104.488 71.8434 104.034 71.8434C103.732 71.8434 103.455 71.908 103.201 72.0372C102.947 72.1616 102.73 72.3482 102.548 72.597C102.366 72.8459 102.225 73.1497 102.124 73.5086C102.024 73.8675 101.974 74.2814 101.974 74.7503V75.0518C101.974 75.4202 102.024 75.7671 102.124 76.0925C102.23 76.4131 102.38 76.6955 102.577 76.9395C102.778 77.1835 103.019 77.3749 103.302 77.5137C103.589 77.6525 103.914 77.7218 104.278 77.7218C104.747 77.7218 105.144 77.6261 105.469 77.4347C105.795 77.2433 106.079 76.9873 106.323 76.6667L107.127 77.3055C106.96 77.5592 106.747 77.8008 106.488 78.0305C106.23 78.2602 105.912 78.4468 105.534 78.5903C105.16 78.7339 104.718 78.8057 104.206 78.8057ZM101.715 68.8216C101.715 68.6063 101.782 68.4245 101.916 68.2761C102.05 68.1278 102.244 68.0536 102.498 68.0536C102.756 68.0536 102.952 68.1278 103.086 68.2761C103.22 68.4245 103.287 68.6063 103.287 68.8216C103.287 69.0274 103.22 69.2044 103.086 69.3528C102.952 69.4963 102.756 69.5681 102.498 69.5681C102.244 69.5681 102.05 69.4963 101.916 69.3528C101.782 69.2044 101.715 69.0274 101.715 68.8216ZM104.809 68.836C104.809 68.6207 104.873 68.4388 105.003 68.2905C105.137 68.1422 105.333 68.068 105.591 68.068C105.845 68.068 106.039 68.1422 106.173 68.2905C106.311 68.4388 106.381 68.6207 106.381 68.836C106.381 69.0417 106.311 69.2188 106.173 69.3671C106.039 69.5107 105.845 69.5825 105.591 69.5825C105.333 69.5825 105.137 69.5107 105.003 69.3671C104.873 69.2188 104.809 69.0417 104.809 68.836ZM110.106 72.3889V81.648H108.771V70.896H109.991L110.106 72.3889ZM115.338 74.7144V74.8652C115.338 75.4298 115.271 75.9538 115.137 76.4371C115.003 76.9156 114.807 77.3319 114.549 77.686C114.295 78.0401 113.982 78.3152 113.609 78.5114C113.235 78.7076 112.807 78.8057 112.324 78.8057C111.831 78.8057 111.395 78.7243 111.017 78.5616C110.639 78.3989 110.319 78.1621 110.056 77.851C109.792 77.54 109.582 77.1668 109.424 76.7313C109.271 76.2959 109.166 75.8054 109.108 75.2599V74.456C109.166 73.8818 109.273 73.3674 109.431 72.9129C109.589 72.4583 109.797 72.0707 110.056 71.7501C110.319 71.4247 110.637 71.1783 111.01 71.0108C111.383 70.8385 111.814 70.7524 112.302 70.7524C112.79 70.7524 113.223 70.8481 113.601 71.0395C113.979 71.2261 114.298 71.4941 114.556 71.8434C114.814 72.1927 115.008 72.6114 115.137 73.0995C115.271 73.5828 115.338 74.1211 115.338 74.7144ZM114.003 74.8652V74.7144C114.003 74.3268 113.963 73.9632 113.881 73.6234C113.8 73.2789 113.673 72.9775 113.501 72.7191C113.333 72.4559 113.118 72.2501 112.855 72.1018C112.592 71.9487 112.278 71.8721 111.915 71.8721C111.58 71.8721 111.288 71.9295 111.039 72.0444C110.795 72.1592 110.587 72.3147 110.414 72.5109C110.242 72.7023 110.101 72.9224 109.991 73.1713C109.886 73.4153 109.807 73.6689 109.754 73.9321V75.7911C109.85 76.126 109.984 76.4418 110.156 76.7385C110.328 77.0304 110.558 77.2673 110.845 77.4491C111.132 77.6261 111.494 77.7147 111.929 77.7147C112.288 77.7147 112.596 77.6405 112.855 77.4922C113.118 77.339 113.333 77.1309 113.501 76.8677C113.673 76.6045 113.8 76.3031 113.881 75.9633C113.963 75.6188 114.003 75.2528 114.003 74.8652Z" fill="#2A3038" id="path5"></path>
<mask height="14" id="mask0_72_31" maskunits="userSpaceOnUse" style="mask-type:luminance" width="92" x="43" y="10">
<path d="M134.21 10.246H43.2974V23.6487H134.21V10.246Z" fill="white" id="path6"></path>
</mask>
<defs id="defs19">
<lineargradient gradientunits="userSpaceOnUse" id="paint0_linear_72_31" x1="0" x2="86.7381" y1="0" y2="152.824">
<stop stop-color="#FFF7CC"></stop>
<stop offset="0.345" stop-color="#FFEF9B"></stop>
<stop offset="0.49" stop-color="#FFF9E4"></stop>
<stop offset="0.61" stop-color="#FFEB7E"></stop>
<stop offset="1" stop-color="white"></stop>
<stop offset="1" stop-color="#FFF7CC"></stop>
</lineargradient>
<lineargradient gradientunits="userSpaceOnUse" id="paint1_linear_72_31" x1="178" x2="91.2619" y1="101.027" y2="-51.7973">
<stop stop-color="#FFE589"></stop>
<stop offset="0.5" stop-color="#FFE380"></stop>
<stop offset="1" stop-color="#FFF2C2"></stop>
</lineargradient>
</defs>
<text id="text14" style="font-size:15.7244px;fill:#000000;stroke-width:1.31037" x="50.301765" xml:space="preserve" y="25.274395"><tspan id="tspan14" sodipodi:role="line" style="font-style:normal;font-variant:normal;font-weight:normal;font-stretch:normal;font-family:Corbert;-inkscape-font-specification:Corbert;stroke-width:1.31037" x="50.301765" y="25.274395">Partner<tspan id="tspan1" style="fill:#336699;fill-opacity:1;stroke-width:1.31037">OS</tspan></tspan></text>
<text id="text19" style="font-family:Corbert;-inkscape-font-specification:Corbert;fill:#ffd42a" x="72.570206" xml:space="preserve" y="93.757668"><tspan id="tspan19" sodipodi:role="line" x="72.570206" y="93.757668">2025</tspan></text>
</svg>