<svg fill="none" height="102" id="svg18" inkscape:version="1.3.2 (091e20e, 2023-11-25, custom)" sodipodi:docname="svg_4.svg" version="1.1" viewbox="0 0 178 102" width="178" xmlns="http://www.w3.org/2000/svg" xmlns:inkscape="http://www.inkscape.org/namespaces/inkscape" xmlns:sodipodi="http://sodipodi.sourceforge.net/DTD/sodipodi-0.dtd" xmlns:svg="http://www.w3.org/2000/svg">
<sodipodi:namedview bordercolor="#000000" borderopacity="0.25" id="namedview18" inkscape:current-layer="svg18" inkscape:cx="89" inkscape:cy="51.002138" inkscape:deskcolor="#d1d1d1" inkscape:pagecheckerboard="0" inkscape:pageopacity="0.0" inkscape:showpageshadow="2" inkscape:window-height="1040" inkscape:window-maximized="0" inkscape:window-width="1488" inkscape:window-x="208" inkscape:window-y="0" inkscape:zoom="7.8820225" pagecolor="#ffffff"></sodipodi:namedview>
<rect fill="url(#paint0_linear_72_59)" height="99.8243" id="rect1" rx="13.8311" width="176.797" x="0.601351" y="0.601351"></rect>
<rect height="99.8243" id="rect2" rx="13.8311" stroke="url(#paint1_linear_72_59)" stroke-width="1.2027" width="176.797" x="0.601351" y="0.601351"></rect>
<circle cx="83.804" cy="45.0135" fill="#8D8D8D" id="circle2" r="6.01351"></circle>
<circle cx="92.223" cy="45.0135" fill="#B5B5B5" id="circle3" r="6.01351"></circle>
<path d="M51.8225 61.9656H53.9686C53.9256 62.669 53.7318 63.2935 53.3872 63.8389C53.0475 64.3844 52.5714 64.8103 51.9589 65.1166C51.3512 65.4228 50.6191 65.5759 49.7626 65.5759C49.0927 65.5759 48.4921 65.4611 47.961 65.2314C47.4298 64.9969 46.9753 64.662 46.5972 64.2265C46.224 63.7911 45.9393 63.2647 45.7431 62.6475C45.5469 62.0302 45.4488 61.3388 45.4488 60.5731V59.8482C45.4488 59.0826 45.5493 58.3912 45.7503 57.7739C45.956 57.1518 46.2479 56.6231 46.626 56.1876C47.0088 55.7522 47.4657 55.4172 47.9969 55.1828C48.528 54.9483 49.1214 54.8311 49.7769 54.8311C50.6478 54.8311 51.3823 54.989 51.9804 55.3048C52.5834 55.6206 53.0499 56.0561 53.3801 56.6111C53.715 57.1662 53.916 57.7978 53.983 58.506H51.8297C51.8058 58.0849 51.722 57.7284 51.5785 57.4365C51.4349 57.1399 51.2172 56.9174 50.9253 56.769C50.6382 56.6159 50.2554 56.5393 49.7769 56.5393C49.418 56.5393 49.1046 56.6063 48.8367 56.7403C48.5687 56.8743 48.3438 57.0777 48.162 57.3504C47.9801 57.6232 47.8438 57.9677 47.7528 58.384C47.6667 58.7955 47.6236 59.2788 47.6236 59.8339V60.5731C47.6236 61.1139 47.6643 61.59 47.7457 62.0015C47.827 62.4082 47.9514 62.7527 48.1189 63.0351C48.2912 63.3126 48.5113 63.5231 48.7792 63.6667C49.052 63.8055 49.3798 63.8748 49.7626 63.8748C50.2124 63.8748 50.5832 63.8031 50.8751 63.6595C51.167 63.516 51.3895 63.303 51.5426 63.0207C51.7005 62.7384 51.7938 62.3867 51.8225 61.9656ZM58.8279 65.5759C58.2249 65.5759 57.6842 65.4802 57.2057 65.2888C56.7272 65.0926 56.3205 64.8223 55.9855 64.4778C55.6554 64.1332 55.4018 63.7337 55.2247 63.2791C55.0477 62.8197 54.9591 62.3317 54.9591 61.8149V61.5278C54.9591 60.9392 55.0429 60.4009 55.2104 59.9128C55.3778 59.4247 55.6171 59.0013 55.9281 58.6424C56.2439 58.2835 56.6267 58.0084 57.0765 57.817C57.5263 57.6208 58.0335 57.5227 58.5982 57.5227C59.1485 57.5227 59.6365 57.6136 60.0624 57.7954C60.4883 57.9773 60.8448 58.2356 61.1319 58.5706C61.4237 58.9056 61.6439 59.3075 61.7922 59.7764C61.9405 60.2406 62.0147 60.7574 62.0147 61.3268V62.1881H55.842V60.81H59.9834V60.6521C59.9834 60.365 59.9308 60.109 59.8255 59.8841C59.7251 59.6544 59.5719 59.4726 59.3662 59.3386C59.1604 59.2046 58.8972 59.1376 58.5766 59.1376C58.3039 59.1376 58.0694 59.1974 57.8732 59.3171C57.677 59.4367 57.5167 59.6042 57.3923 59.8195C57.2727 60.0348 57.1818 60.2884 57.1196 60.5803C57.0622 60.8674 57.0335 61.1832 57.0335 61.5278V61.8149C57.0335 62.1259 57.0765 62.413 57.1627 62.6762C57.2536 62.9394 57.3804 63.1666 57.5431 63.3581C57.7105 63.5495 57.9115 63.6978 58.146 63.8031C58.3852 63.9083 58.6556 63.961 58.9571 63.961C59.3303 63.961 59.6772 63.8892 59.9978 63.7456C60.3232 63.5973 60.6031 63.3748 60.8376 63.0781L61.8424 64.1691C61.6797 64.4036 61.4572 64.6285 61.1749 64.8438C60.8974 65.0591 60.5624 65.2362 60.1701 65.375C59.7777 65.5089 59.3303 65.5759 58.8279 65.5759ZM65.259 59.1592V68.4182H63.1918V57.6662H65.1082L65.259 59.1592ZM70.1756 61.4632V61.6139C70.1756 62.1785 70.1086 62.7025 69.9746 63.1858C69.8455 63.6691 69.654 64.0902 69.4004 64.449C69.1468 64.8031 68.831 65.0807 68.453 65.2816C68.0798 65.4778 67.6491 65.5759 67.161 65.5759C66.6873 65.5759 66.2758 65.4802 65.9265 65.2888C65.5772 65.0974 65.2829 64.8295 65.0436 64.4849C64.8092 64.1356 64.6202 63.7313 64.4766 63.2719C64.3331 62.8126 64.223 62.3197 64.1464 61.7933V61.3986C64.223 60.8339 64.3331 60.3171 64.4766 59.8482C64.6202 59.3745 64.8092 58.9654 65.0436 58.6208C65.2829 58.2715 65.5748 58.0012 65.9193 57.8098C66.2686 57.6184 66.6777 57.5227 67.1467 57.5227C67.6395 57.5227 68.0726 57.616 68.4458 57.8026C68.8238 57.9892 69.1397 58.2572 69.3933 58.6065C69.6517 58.9558 69.8455 59.3721 69.9746 59.8554C70.1086 60.3387 70.1756 60.8746 70.1756 61.4632ZM68.1013 61.6139V61.4632C68.1013 61.133 68.0726 60.8291 68.0152 60.5516C67.9625 60.2693 67.8764 60.0229 67.7568 59.8123C67.6419 59.6018 67.4888 59.4391 67.2974 59.3242C67.1108 59.2046 66.8835 59.1448 66.6155 59.1448C66.3332 59.1448 66.0916 59.1903 65.8906 59.2812C65.6944 59.3721 65.5341 59.5037 65.4097 59.6759C65.2853 59.8482 65.192 60.054 65.1298 60.2932C65.0676 60.5325 65.0293 60.8028 65.0149 61.1043V62.102C65.0389 62.4561 65.1059 62.7743 65.2159 63.0566C65.326 63.3341 65.4958 63.5542 65.7255 63.7169C65.9552 63.8796 66.2567 63.961 66.6299 63.961C66.9026 63.961 67.1323 63.9012 67.3189 63.7815C67.5056 63.6571 67.6563 63.4872 67.7711 63.2719C67.8908 63.0566 67.9745 62.8078 68.0223 62.5255C68.075 62.2431 68.1013 61.9393 68.1013 61.6139ZM75.0348 65.5759C74.4319 65.5759 73.8912 65.4802 73.4127 65.2888C72.9342 65.0926 72.5275 64.8223 72.1925 64.4778C71.8624 64.1332 71.6087 63.7337 71.4317 63.2791C71.2547 62.8197 71.1661 62.3317 71.1661 61.8149V61.5278C71.1661 60.9392 71.2499 60.4009 71.4173 59.9128C71.5848 59.4247 71.8241 59.0013 72.1351 58.6424C72.4509 58.2835 72.8337 58.0084 73.2835 57.817C73.7333 57.6208 74.2405 57.5227 74.8052 57.5227C75.3554 57.5227 75.8435 57.6136 76.2694 57.7954C76.6953 57.9773 77.0517 58.2356 77.3389 58.5706C77.6307 58.9056 77.8509 59.3075 77.9992 59.7764C78.1475 60.2406 78.2217 60.7574 78.2217 61.3268V62.1881H72.049V60.81H76.1904V60.6521C76.1904 60.365 76.1378 60.109 76.0325 59.8841C75.932 59.6544 75.7789 59.4726 75.5732 59.3386C75.3674 59.2046 75.1042 59.1376 74.7836 59.1376C74.5109 59.1376 74.2764 59.1974 74.0802 59.3171C73.884 59.4367 73.7237 59.6042 73.5993 59.8195C73.4797 60.0348 73.3888 60.2884 73.3266 60.5803C73.2692 60.8674 73.2405 61.1832 73.2405 61.5278V61.8149C73.2405 62.1259 73.2835 62.413 73.3696 62.6762C73.4606 62.9394 73.5874 63.1666 73.7501 63.3581C73.9175 63.5495 74.1185 63.6978 74.353 63.8031C74.5922 63.9083 74.8626 63.961 75.164 63.961C75.5373 63.961 75.8842 63.8892 76.2048 63.7456C76.5302 63.5973 76.8101 63.3748 77.0446 63.0781L78.0494 64.1691C77.8867 64.4036 77.6642 64.6285 77.3819 64.8438C77.1044 65.0591 76.7694 65.2362 76.3771 65.375C75.9847 65.5089 75.5373 65.5759 75.0348 65.5759ZM84.1576 54.2497H85.8299C85.8299 54.6373 85.7821 54.9698 85.6864 55.2474C85.5907 55.5201 85.4376 55.7546 85.227 55.9508C85.0165 56.1422 84.7342 56.3049 84.3801 56.4389C84.026 56.5728 83.5881 56.6877 83.0666 56.7834C82.6646 56.8647 82.3153 56.9987 82.0186 57.1853C81.7268 57.3719 81.4851 57.6279 81.2937 57.9533C81.1071 58.2739 80.9731 58.6807 80.8918 59.1735C80.8104 59.6616 80.7817 60.2502 80.8056 60.9392V61.2837L79.1978 61.5062V61.1617C79.2026 60.2238 79.2864 59.408 79.4491 58.7142C79.6165 58.0203 79.8534 57.4365 80.1596 56.9628C80.4659 56.4843 80.8343 56.1039 81.265 55.8216C81.6957 55.5345 82.1742 55.3335 82.7005 55.2187C83.0546 55.1421 83.3369 55.0679 83.5475 54.9962C83.7628 54.9196 83.9183 54.8239 84.014 54.7091C84.1097 54.5942 84.1576 54.4411 84.1576 54.2497ZM83.2532 58.1041C83.7795 58.1041 84.2461 58.195 84.6528 58.3768C85.0595 58.5539 85.4017 58.8051 85.6792 59.1305C85.9567 59.4558 86.1673 59.8386 86.3108 60.2789C86.4544 60.7191 86.5262 61.2 86.5262 61.7216V61.8723C86.5262 62.4034 86.4448 62.8963 86.2821 63.3509C86.1242 63.8007 85.8898 64.193 85.5787 64.528C85.2677 64.863 84.8849 65.1237 84.4303 65.3104C83.9757 65.4922 83.4566 65.5831 82.8728 65.5831C82.2842 65.5831 81.7602 65.485 81.3009 65.2888C80.8463 65.0878 80.4611 64.8079 80.1453 64.449C79.8343 64.0854 79.5974 63.6619 79.4347 63.1786C79.2768 62.6905 79.1978 62.1594 79.1978 61.5852V61.4273C79.1978 61.3459 79.2337 61.267 79.3055 61.1904C79.3821 61.1091 79.4706 61.0182 79.5711 60.9177C79.6764 60.8172 79.7697 60.6904 79.851 60.5373C80.1381 60.0061 80.4515 59.5611 80.7913 59.2022C81.131 58.8386 81.5019 58.5658 81.9038 58.384C82.3105 58.1974 82.7603 58.1041 83.2532 58.1041ZM82.8584 59.719C82.4708 59.719 82.1598 59.8123 81.9253 59.9989C81.6909 60.1808 81.521 60.4248 81.4157 60.7311C81.3152 61.0325 81.265 61.3627 81.265 61.7216V61.8723C81.265 62.1642 81.2937 62.4369 81.3511 62.6905C81.4085 62.9394 81.4995 63.1619 81.6239 63.3581C81.7483 63.5495 81.9134 63.7002 82.1191 63.8102C82.3249 63.9155 82.5761 63.9681 82.8728 63.9681C83.1599 63.9681 83.4039 63.9155 83.6049 63.8102C83.8106 63.7002 83.9757 63.5495 84.1001 63.3581C84.2246 63.1619 84.3155 62.9394 84.3729 62.6905C84.4303 62.4369 84.459 62.1642 84.459 61.8723V61.7216C84.459 61.4488 84.4303 61.1928 84.3729 60.9536C84.3155 60.7095 84.2246 60.4966 84.1001 60.3148C83.9757 60.1281 83.8106 59.9822 83.6049 59.8769C83.3991 59.7716 83.1503 59.719 82.8584 59.719ZM89.7202 59.1592V68.4182H87.653V57.6662H89.5695L89.7202 59.1592ZM94.6368 61.4632V61.6139C94.6368 62.1785 94.5698 62.7025 94.4359 63.1858C94.3067 63.6691 94.1153 64.0902 93.8617 64.449C93.6081 64.8031 93.2922 65.0807 92.9142 65.2816C92.541 65.4778 92.1103 65.5759 91.6223 65.5759C91.1485 65.5759 90.737 65.4802 90.3877 65.2888C90.0384 65.0974 89.7441 64.8295 89.5049 64.4849C89.2704 64.1356 89.0814 63.7313 88.9378 63.2719C88.7943 62.8126 88.6842 62.3197 88.6077 61.7933V61.3986C88.6842 60.8339 88.7943 60.3171 88.9378 59.8482C89.0814 59.3745 89.2704 58.9654 89.5049 58.6208C89.7441 58.2715 90.036 58.0012 90.3805 57.8098C90.7298 57.6184 91.139 57.5227 91.6079 57.5227C92.1008 57.5227 92.5338 57.616 92.907 57.8026C93.2851 57.9892 93.6009 58.2572 93.8545 58.6065C94.1129 58.9558 94.3067 59.3721 94.4359 59.8554C94.5698 60.3387 94.6368 60.8746 94.6368 61.4632ZM92.5625 61.6139V61.4632C92.5625 61.133 92.5338 60.8291 92.4764 60.5516C92.4237 60.2693 92.3376 60.0229 92.218 59.8123C92.1031 59.6018 91.95 59.4391 91.7586 59.3242C91.572 59.2046 91.3447 59.1448 91.0768 59.1448C90.7944 59.1448 90.5528 59.1903 90.3518 59.2812C90.1556 59.3721 89.9953 59.5037 89.8709 59.6759C89.7465 59.8482 89.6532 60.054 89.591 60.2932C89.5288 60.5325 89.4905 60.8028 89.4762 61.1043V62.102C89.5001 62.4561 89.5671 62.7743 89.6771 63.0566C89.7872 63.3341 89.9571 63.5542 90.1867 63.7169C90.4164 63.8796 90.7179 63.961 91.0911 63.961C91.3639 63.961 91.5935 63.9012 91.7802 63.7815C91.9668 63.6571 92.1175 63.4872 92.2323 63.2719C92.352 63.0566 92.4357 62.8078 92.4836 62.5255C92.5362 62.2431 92.5625 61.9393 92.5625 61.6139ZM97.594 61.5565H99.6899L97.5294 65.4324H95.4407L97.594 61.5565ZM98.9865 57.6662H102.396V65.4324H100.329V59.2668H98.9865C98.7041 59.2668 98.4697 59.3195 98.2831 59.4247C98.0964 59.5252 97.9577 59.6568 97.8668 59.8195C97.7806 59.9774 97.7376 60.1401 97.7376 60.3076C97.7376 60.4703 97.7806 60.6282 97.8668 60.7813C97.9529 60.9344 98.0869 61.0612 98.2687 61.1617C98.4505 61.2622 98.6778 61.3124 98.9506 61.3124H101.097V62.7192H98.9506C98.4386 62.7192 97.9792 62.657 97.5725 62.5326C97.1705 62.4082 96.826 62.236 96.5389 62.0158C96.2566 61.7909 96.0389 61.5302 95.8857 61.2335C95.7374 60.932 95.6632 60.6019 95.6632 60.243C95.6632 59.8697 95.7398 59.5276 95.8929 59.2166C96.046 58.9056 96.2662 58.6328 96.5533 58.3983C96.8404 58.1639 97.1873 57.9844 97.594 57.86C98.0055 57.7308 98.4697 57.6662 98.9865 57.6662ZM109.466 60.8028V62.4106H105.518V60.8028H109.466ZM106.207 57.6662V65.4324H104.14V57.6662H106.207ZM110.865 57.6662V65.4324H108.791V57.6662H110.865ZM113.901 59.9702H116.155C116.863 59.9702 117.466 60.0875 117.964 60.3219C118.466 60.5516 118.849 60.8722 119.112 61.2837C119.38 61.6952 119.514 62.1714 119.514 62.7121C119.514 63.1044 119.438 63.4681 119.285 63.8031C119.136 64.1332 118.919 64.4203 118.632 64.6644C118.344 64.9084 117.993 65.0974 117.576 65.2314C117.16 65.3654 116.686 65.4324 116.155 65.4324H112.61V57.6662H114.684V63.8246H116.155C116.466 63.8246 116.715 63.7744 116.902 63.6739C117.093 63.5686 117.232 63.4322 117.318 63.2647C117.409 63.0973 117.454 62.9154 117.454 62.7192C117.454 62.5135 117.409 62.3269 117.318 62.1594C117.232 61.9871 117.093 61.8484 116.902 61.7431C116.715 61.6378 116.466 61.5852 116.155 61.5852H113.901V59.9702ZM122.83 57.6662V65.4324H120.763V57.6662H122.83ZM126.706 62.547L129.312 57.6662H131.379V65.4324H129.312V60.5444L126.706 65.4324H124.639V57.6662H126.706V62.547ZM129.075 54.544H130.546C130.546 54.9555 130.443 55.3215 130.238 55.6421C130.037 55.958 129.75 56.2068 129.376 56.3886C129.003 56.5657 128.563 56.6542 128.056 56.6542C127.285 56.6542 126.675 56.458 126.225 56.0656C125.78 55.6732 125.558 55.166 125.558 54.544H127.022C127.022 54.7928 127.099 55.0153 127.252 55.2115C127.41 55.4077 127.678 55.5058 128.056 55.5058C128.429 55.5058 128.692 55.4077 128.845 55.2115C128.998 55.0153 129.075 54.7928 129.075 54.544Z" fill="#2A3038" id="path3"></path>
<path d="M66.4374 70.896V71.9941H62.5113V70.896H66.4374ZM62.7051 70.896V78.6621H61.3772V70.896H62.7051ZM67.6145 70.896V78.6621H66.2795V70.896H67.6145ZM74.3256 77.3343V73.3363C74.3256 73.0301 74.2634 72.7645 74.139 72.5396C74.0193 72.3099 73.8375 72.1329 73.5935 72.0085C73.3494 71.8841 73.048 71.8219 72.6891 71.8219C72.3541 71.8219 72.0599 71.8793 71.8062 71.9941C71.5574 72.109 71.3612 72.2597 71.2177 72.4463C71.0789 72.6329 71.0095 72.8339 71.0095 73.0492H69.6817C69.6817 72.7717 69.7535 72.4966 69.897 72.2238C70.0406 71.9511 70.2463 71.7046 70.5143 71.4845C70.787 71.2596 71.1124 71.0826 71.4904 70.9534C71.8732 70.8194 72.2991 70.7524 72.768 70.7524C73.3327 70.7524 73.8303 70.8481 74.261 71.0395C74.6964 71.2309 75.0362 71.5204 75.2802 71.908C75.529 72.2908 75.6534 72.7717 75.6534 73.3507V76.9682C75.6534 77.2266 75.675 77.5017 75.718 77.7936C75.7659 78.0855 75.8353 78.3367 75.9262 78.5473V78.6621H74.5409C74.4739 78.509 74.4213 78.3056 74.383 78.052C74.3447 77.7936 74.3256 77.5544 74.3256 77.3343ZM74.5553 73.9536L74.5696 74.8867H73.2274C72.8494 74.8867 72.512 74.9178 72.2154 74.98C71.9187 75.0374 71.6699 75.126 71.4689 75.2456C71.2679 75.3652 71.1148 75.5159 71.0095 75.6978C70.9043 75.8748 70.8516 76.083 70.8516 76.3222C70.8516 76.5663 70.9067 76.7888 71.0167 76.9897C71.1268 77.1907 71.2918 77.351 71.512 77.4706C71.7369 77.5855 72.012 77.6429 72.3374 77.6429C72.7441 77.6429 73.103 77.5568 73.414 77.3845C73.7251 77.2122 73.9715 77.0017 74.1533 76.7529C74.3399 76.504 74.4404 76.2624 74.4548 76.0279L75.0218 76.6667C74.9883 76.8677 74.8974 77.0902 74.7491 77.3343C74.6007 77.5783 74.4021 77.8128 74.1533 78.0377C73.9093 78.2578 73.6174 78.442 73.2776 78.5903C72.9427 78.7339 72.5647 78.8057 72.1436 78.8057C71.6172 78.8057 71.1555 78.7028 70.7583 78.497C70.3659 78.2913 70.0597 78.0161 69.8396 77.6716C69.6243 77.3223 69.5166 76.9323 69.5166 76.5017C69.5166 76.0854 69.5979 75.7193 69.7606 75.4035C69.9233 75.0829 70.1578 74.8173 70.464 74.6068C70.7703 74.3914 71.1387 74.2288 71.5694 74.1187C72 74.0086 72.4809 73.9536 73.0121 73.9536H74.5553ZM79.07 72.3889V81.648H77.7349V70.896H78.9551L79.07 72.3889ZM84.3024 74.7144V74.8652C84.3024 75.4298 84.2354 75.9538 84.1014 76.4371C83.9675 76.9156 83.7713 77.3319 83.5129 77.686C83.2593 78.0401 82.9459 78.3152 82.5726 78.5114C82.1994 78.7076 81.7711 78.8057 81.2878 78.8057C80.795 78.8057 80.3595 78.7243 79.9815 78.5616C79.6035 78.3989 79.2829 78.1621 79.0197 77.851C78.7565 77.54 78.546 77.1668 78.3881 76.7313C78.235 76.2959 78.1297 75.8054 78.0723 75.2599V74.456C78.1297 73.8818 78.2374 73.3674 78.3953 72.9129C78.5532 72.4583 78.7613 72.0707 79.0197 71.7501C79.2829 71.4247 79.6011 71.1783 79.9743 71.0108C80.3476 70.8385 80.7782 70.7524 81.2663 70.7524C81.7544 70.7524 82.1874 70.8481 82.5654 71.0395C82.9435 71.2261 83.2617 71.4941 83.5201 71.8434C83.7785 72.1927 83.9723 72.6114 84.1014 73.0995C84.2354 73.5828 84.3024 74.1211 84.3024 74.7144ZM82.9674 74.8652V74.7144C82.9674 74.3268 82.9267 73.9632 82.8454 73.6234C82.764 73.2789 82.6372 72.9775 82.465 72.7191C82.2975 72.4559 82.0822 72.2501 81.819 72.1018C81.5558 71.9487 81.2424 71.8721 80.8787 71.8721C80.5438 71.8721 80.2519 71.9295 80.003 72.0444C79.759 72.1592 79.5509 72.3147 79.3786 72.5109C79.2063 72.7023 79.0652 72.9224 78.9551 73.1713C78.8498 73.4153 78.7709 73.6689 78.7183 73.9321V75.7911C78.814 76.126 78.9479 76.4418 79.1202 76.7385C79.2925 77.0304 79.5221 77.2673 79.8093 77.4491C80.0964 77.6261 80.4576 77.7147 80.8931 77.7147C81.2519 77.7147 81.5606 77.6405 81.819 77.4922C82.0822 77.339 82.2975 77.1309 82.465 76.8677C82.6372 76.6045 82.764 76.3031 82.8454 75.9633C82.9267 75.6188 82.9674 75.2528 82.9674 74.8652ZM88.5874 70.896V78.6621H87.2524V70.896H88.5874ZM91.1929 70.896V71.9726H84.6972V70.896H91.1929ZM97.7676 74.2622V75.3389H93.662V74.2622H97.7676ZM93.9419 70.896V78.6621H92.6141V70.896H93.9419ZM98.8442 70.896V78.6621H97.5092V70.896H98.8442ZM104.206 78.8057C103.665 78.8057 103.175 78.7147 102.734 78.5329C102.299 78.3463 101.923 78.0855 101.608 77.7506C101.297 77.4156 101.057 77.0184 100.89 76.5591C100.722 76.0997 100.639 75.5973 100.639 75.0518V74.7503C100.639 74.1187 100.732 73.5565 100.919 73.0636C101.105 72.5659 101.359 72.1449 101.679 71.8003C102 71.4558 102.364 71.195 102.77 71.018C103.177 70.8409 103.598 70.7524 104.034 70.7524C104.589 70.7524 105.067 70.8481 105.469 71.0395C105.876 71.2309 106.208 71.4989 106.467 71.8434C106.725 72.1831 106.917 72.5851 107.041 73.0492C107.165 73.5086 107.228 74.011 107.228 74.5565V75.1523H101.428V74.0685H105.9V73.968C105.881 73.6234 105.809 73.2885 105.684 72.9631C105.565 72.6377 105.373 72.3698 105.11 72.1592C104.847 71.9487 104.488 71.8434 104.034 71.8434C103.732 71.8434 103.455 71.908 103.201 72.0372C102.947 72.1616 102.73 72.3482 102.548 72.597C102.366 72.8459 102.225 73.1497 102.124 73.5086C102.024 73.8675 101.974 74.2814 101.974 74.7503V75.0518C101.974 75.4202 102.024 75.7671 102.124 76.0925C102.23 76.4131 102.38 76.6955 102.577 76.9395C102.778 77.1835 103.019 77.3749 103.302 77.5137C103.589 77.6525 103.914 77.7218 104.278 77.7218C104.747 77.7218 105.144 77.6261 105.469 77.4347C105.795 77.2433 106.079 76.9873 106.323 76.6667L107.127 77.3055C106.96 77.5592 106.747 77.8008 106.488 78.0305C106.23 78.2602 105.912 78.4468 105.534 78.5903C105.16 78.7339 104.718 78.8057 104.206 78.8057ZM101.715 68.8216C101.715 68.6063 101.782 68.4245 101.916 68.2761C102.05 68.1278 102.244 68.0536 102.498 68.0536C102.756 68.0536 102.952 68.1278 103.086 68.2761C103.22 68.4245 103.287 68.6063 103.287 68.8216C103.287 69.0274 103.22 69.2044 103.086 69.3528C102.952 69.4963 102.756 69.5681 102.498 69.5681C102.244 69.5681 102.05 69.4963 101.916 69.3528C101.782 69.2044 101.715 69.0274 101.715 68.8216ZM104.809 68.836C104.809 68.6207 104.873 68.4388 105.003 68.2905C105.137 68.1422 105.333 68.068 105.591 68.068C105.845 68.068 106.039 68.1422 106.173 68.2905C106.311 68.4388 106.381 68.6207 106.381 68.836C106.381 69.0417 106.311 69.2188 106.173 69.3671C106.039 69.5107 105.845 69.5825 105.591 69.5825C105.333 69.5825 105.137 69.5107 105.003 69.3671C104.873 69.2188 104.809 69.0417 104.809 68.836ZM110.106 72.3889V81.648H108.771V70.896H109.991L110.106 72.3889ZM115.338 74.7144V74.8652C115.338 75.4298 115.271 75.9538 115.137 76.4371C115.003 76.9156 114.807 77.3319 114.549 77.686C114.295 78.0401 113.982 78.3152 113.609 78.5114C113.235 78.7076 112.807 78.8057 112.324 78.8057C111.831 78.8057 111.395 78.7243 111.017 78.5616C110.639 78.3989 110.319 78.1621 110.056 77.851C109.792 77.54 109.582 77.1668 109.424 76.7313C109.271 76.2959 109.166 75.8054 109.108 75.2599V74.456C109.166 73.8818 109.273 73.3674 109.431 72.9129C109.589 72.4583 109.797 72.0707 110.056 71.7501C110.319 71.4247 110.637 71.1783 111.01 71.0108C111.383 70.8385 111.814 70.7524 112.302 70.7524C112.79 70.7524 113.223 70.8481 113.601 71.0395C113.979 71.2261 114.298 71.4941 114.556 71.8434C114.814 72.1927 115.008 72.6114 115.137 73.0995C115.271 73.5828 115.338 74.1211 115.338 74.7144ZM114.003 74.8652V74.7144C114.003 74.3268 113.963 73.9632 113.881 73.6234C113.8 73.2789 113.673 72.9775 113.501 72.7191C113.333 72.4559 113.118 72.2501 112.855 72.1018C112.592 71.9487 112.278 71.8721 111.915 71.8721C111.58 71.8721 111.288 71.9295 111.039 72.0444C110.795 72.1592 110.587 72.3147 110.414 72.5109C110.242 72.7023 110.101 72.9224 109.991 73.1713C109.886 73.4153 109.807 73.6689 109.754 73.9321V75.7911C109.85 76.126 109.984 76.4418 110.156 76.7385C110.328 77.0304 110.558 77.2673 110.845 77.4491C111.132 77.6261 111.494 77.7147 111.929 77.7147C112.288 77.7147 112.596 77.6405 112.855 77.4922C113.118 77.339 113.333 77.1309 113.501 76.8677C113.673 76.6045 113.8 76.3031 113.881 75.9633C113.963 75.6188 114.003 75.2528 114.003 74.8652Z" fill="#2A3038" id="path4"></path>
<mask height="14" id="mask0_72_59" maskunits="userSpaceOnUse" style="mask-type:luminance" width="92" x="43" y="10">
<path d="M134.21 10.2461H43.2974V23.6488H134.21V10.2461Z" fill="white" id="path5"></path>
</mask>
<defs id="defs18">
<lineargradient gradientunits="userSpaceOnUse" id="paint0_linear_72_59" x1="0" x2="86.7381" y1="0" y2="152.824">
<stop stop-color="#D4D4D4"></stop>
<stop offset="0.345" stop-color="#D1D1D1"></stop>
<stop offset="0.49" stop-color="#F1F1F1"></stop>
<stop offset="0.61" stop-color="#D2D2D2"></stop>
<stop offset="1" stop-color="white"></stop>
<stop offset="1" stop-color="#D2D2D2"></stop>
</lineargradient>
<lineargradient gradientunits="userSpaceOnUse" id="paint1_linear_72_59" x1="178" x2="91.2619" y1="101.027" y2="-51.7973">
<stop stop-color="#EBEBEB"></stop>
<stop offset="0.5" stop-color="#DDDDDD"></stop>
<stop offset="1" stop-color="#F2F2F2"></stop>
</lineargradient>
</defs>
<text id="text14" style="font-size:15.7244px;fill:#000000;stroke-width:1.31037" x="50.301765" xml:space="preserve" y="26.274395"><tspan id="tspan14" sodipodi:role="line" style="font-style:normal;font-variant:normal;font-weight:normal;font-stretch:normal;font-family:Corbert;-inkscape-font-specification:Corbert;stroke-width:1.31037" x="50.301765" y="26.274395">Partner<tspan id="tspan1" style="fill:#336699;fill-opacity:1;stroke-width:1.31037">OS</tspan></tspan></text>
<text id="text19" style="font-family:Corbert;-inkscape-font-specification:Corbert;fill:#808080" x="71.449867" xml:space="preserve" y="99.252098"><tspan id="tspan19" sodipodi:role="line" x="71.449867" y="99.252098">2025</tspan></text>
</svg>